<?xml version="1.0" encoding="UTF-8"?>
<svg xmlns="http://www.w3.org/2000/svg" width="188" height="43" viewBox="0 0 188 43" fill="none">
  <path fill-rule="evenodd" clip-rule="evenodd" d="M18.7732 13.1083C18.7774 13.1041 18.7774 13.1041 18.7732 13.1083V13.1083Z" fill="#054589"></path>
  <path fill-rule="evenodd" clip-rule="evenodd" d="M40.0158 0.525307V37.5617C40.0158 38.6456 39.1278 39.5336 38.0431 39.5336H22.4628C21.4448 39.5352 20.5121 40.302 20.3218 41.1095C20.0713 40.2996 19.0931 39.5474 18.1417 39.5336H2.50129C1.41653 39.5336 0.528555 38.6464 0.528555 37.5617V0.525307H40.0158ZM15.8095 37.1006C16.0868 37.1738 16.3666 37.2397 16.6479 37.299L17.2269 36.0695L19.0687 36.311L19.3435 37.6495C19.9713 37.6853 20.5999 37.6853 21.2285 37.6495L21.4692 36.3135L23.3102 36.0646L23.9265 37.2933C24.5429 37.1722 25.1471 37.0047 25.7423 36.803L25.6277 35.4393L27.3402 34.74L28.2558 35.7597C28.8153 35.4727 29.3568 35.1547 29.8838 34.8099L29.4276 33.53L30.8872 32.3989L32.0289 33.1543C32.4973 32.729 32.9421 32.281 33.3649 31.8102L32.5908 30.6945L33.7203 29.2349L35.0116 29.6691C35.3515 29.1373 35.6646 28.5884 35.9581 28.029L34.9221 27.1548L35.6402 25.4439L37.0055 25.5244C37.1974 24.9251 37.3584 24.3177 37.4901 23.7021L36.2639 23.1264L36.5103 21.274L37.8414 21.0008C37.8772 20.3755 37.8821 19.7493 37.8447 19.1232L36.5013 18.8874L36.2671 17.0512L37.4893 16.4308C37.3559 15.812 37.1925 15.2013 36.9908 14.6012L35.6353 14.7313L34.953 13.0163L35.9475 12.1096C35.6572 11.5445 35.3393 10.9972 34.9913 10.4662L33.7268 10.9371L32.5908 9.45059L33.3454 8.31542C32.9209 7.85029 32.4778 7.40223 32.0102 6.97939L30.901 7.7584L29.4195 6.63135L29.8513 5.33354C29.3251 4.99283 28.7844 4.67651 28.2265 4.39271L27.3581 5.42218L25.6326 4.71717L25.7155 3.34455C25.117 3.14207 24.5079 2.97944 23.8891 2.85258L23.3134 4.08696L21.4822 3.8422L21.2081 2.50698C20.5763 2.47039 19.9437 2.47121 19.3135 2.5078L19.0768 3.8544L17.2293 4.09835L16.6203 2.86397C16.0031 2.99407 15.3956 3.15914 14.798 3.36081L14.9102 4.70741L13.205 5.42624L12.2853 4.40166C11.7242 4.68708 11.1818 5.00584 10.6573 5.35388L11.1225 6.62241L9.64982 7.76653L8.51545 7.00622C8.04707 7.42907 7.60227 7.87549 7.17942 8.34469L7.95762 9.45954L6.82326 10.924L5.52464 10.489C5.18473 11.0208 4.86922 11.5664 4.5838 12.13L5.61896 13.0033L4.90826 14.7207L3.54052 14.6353C3.34373 15.2298 3.18354 15.8347 3.05262 16.4454L4.28538 17.0301L4.03736 18.8687L2.69808 19.1484C2.66555 19.777 2.66962 20.4055 2.70296 21.0341L4.04142 21.2707L4.28293 23.1134L3.05587 23.7265C3.19004 24.3421 3.35511 24.9487 3.54865 25.548L4.90338 25.4244L5.6214 27.1434L4.5838 28.0566C4.88549 28.6104 5.20832 29.1527 5.55066 29.6821L6.8257 29.2284L7.9438 30.6969L7.20219 31.8378C7.62585 32.3029 8.07065 32.7477 8.53741 33.169L9.649 32.3932L11.1184 33.5349L10.6882 34.8246C11.2168 35.1661 11.7616 35.4792 12.3211 35.767L13.1944 34.7335L14.9053 35.4466L14.8289 36.8095C15.1525 36.9168 15.4802 37.0136 15.8095 37.1006ZM24.6275 33.0689V31.2125H16.0567V33.0998C16.3145 33.2031 16.5951 33.3227 16.8601 33.3966V32.2924C16.8601 32.0679 17.0293 31.8842 17.2358 31.8842C17.4424 31.8842 17.6115 32.0679 17.6115 32.2924V33.5999C17.8473 33.6471 18.084 33.6983 18.3198 33.7292V32.3721C18.3198 32.1037 18.5214 31.8842 18.7686 31.8842C19.015 31.8842 19.2175 32.1037 19.2175 32.3721V33.8317C19.4127 33.8455 19.6086 33.8561 19.8038 33.8626V32.3721C19.8038 32.1037 20.0396 31.8842 20.3275 31.8842C20.6161 31.8842 20.852 32.1037 20.852 32.3721V33.8512C21.052 33.8439 21.2529 33.8276 21.4529 33.8122V32.3721C21.4529 32.1037 21.6554 31.8842 21.9018 31.8842C22.149 31.8842 22.3506 32.1037 22.3506 32.3721V33.6959C22.5816 33.6585 22.8125 33.6129 23.0434 33.5625V32.2924C23.0434 32.0679 23.2134 31.8842 23.4199 31.8842C23.6265 31.8842 23.7956 32.0679 23.7956 32.2924V33.3641C24.0729 33.2755 24.3502 33.1747 24.6275 33.0689ZM13.7254 29.9277H26.9133L24.9389 30.7319H15.6916L13.7254 29.9277ZM14.7142 29.478C14.3361 29.4609 13.9547 29.4609 13.5847 29.4561C13.5611 28.8193 13.5766 28.2046 13.5807 27.585C14.6077 27.585 15.6306 27.589 16.6577 27.5939C16.6812 27.589 16.7016 27.585 16.7252 27.5809C17.5278 27.598 18.3661 27.611 19.1842 27.611C19.4834 27.5679 19.794 27.5809 20.1087 27.6281C20.4316 27.624 20.7585 27.6199 21.0813 27.6199C21.2545 27.637 21.4472 27.5809 21.6399 27.611C22.1864 27.602 22.3677 27.5939 22.8084 27.5939C22.8556 27.598 22.9028 27.6069 22.9621 27.5939C23.6192 27.598 24.2998 27.624 24.9731 27.572C25.0202 27.598 25.3935 27.5679 25.4569 27.563C26.4449 27.563 26.4449 27.563 27.0353 27.576C27.0353 28.1875 27.0312 28.8023 27.0312 29.417C25.4724 29.4479 23.9103 29.443 22.3718 29.4081C21.0886 29.4479 19.8095 29.4609 18.5466 29.443C18.484 29.439 18.4206 29.4349 18.358 29.4349C16.2958 29.4691 16.2958 29.4691 14.7142 29.478ZM17.3879 23.4427C15.3574 23.8135 13.3213 25.9855 16.3194 26.9767C17.8945 27.3679 19.3622 27.1589 20.6958 26.51C20.7666 26.2685 20.8658 26.0302 21.0211 25.8302C20.9951 25.8448 20.9691 25.8562 20.9414 25.8676L20.6023 25.9969C20.6186 25.87 20.6324 25.7415 20.6503 25.6139C20.6552 25.5838 20.6601 25.5545 20.6658 25.5244C20.6934 25.3886 20.7471 25.2618 20.7967 25.1341L20.8251 25.1292L20.8877 25.0357L20.9048 24.9877C20.9959 24.9105 21.0878 24.8332 21.1691 24.7446L21.2016 24.7031L21.2154 24.6592L21.252 24.6291L21.1227 24.5567L21.0561 24.5023L20.8845 24.2494C20.1266 25.5415 18.7426 26.1514 17.3879 26.1473C15.1769 26.1009 15.4436 24.3079 17.3879 23.4427ZM17.6139 23.559C17.6139 23.5159 17.6709 23.5086 17.7034 23.5159C17.7115 23.5313 17.7619 23.7729 17.8514 23.7298C18.2881 22.9125 17.692 21.7424 17.4838 20.8796C18.3865 20.7877 19.0939 20.4576 19.7705 19.8136C19.8713 19.8876 19.8989 19.9616 19.903 20.1136C19.8371 20.5186 19.7119 20.9081 19.7119 21.3439C19.7509 22.0294 20.5641 22.98 20.4722 23.4427L20.4714 23.4443V23.446C19.533 26.5279 13.9458 26.1424 17.6139 23.559ZM15.8055 17.5229C15.668 17.4554 15.5745 17.392 15.5648 17.3066C15.6258 17.1147 16.2397 17.5928 15.8055 17.5229ZM16.6715 16.3503C16.6593 16.3527 16.6471 16.3527 16.6349 16.3535C16.6316 16.3576 16.6316 16.3609 16.6316 16.3649C16.3698 16.2015 16.4601 16.0706 16.4275 15.8128C16.4064 15.7437 16.3519 15.6965 16.3186 15.6526C16.2495 15.4713 16.2568 15.3834 16.3226 15.2135C16.3226 15.0533 16.0388 15.111 16.0868 14.9484C16.3048 14.7305 16.7731 14.7923 17.0561 14.8679C17.1252 14.9045 17.1944 14.9411 17.2635 14.9736C17.492 15.159 17.6554 15.3298 17.7684 15.6315C17.7644 15.6599 17.7644 15.6599 17.7571 15.6746H17.7213C17.5391 15.5908 17.3903 15.442 17.2415 15.3509C17.0927 15.3005 17.0821 15.3208 17.1041 15.4696C17.1911 15.6689 17.5578 15.7957 17.5578 16.0567C17.5432 16.0608 17.4741 16.0885 17.4594 16.0958C17.1456 16.0714 16.9561 16.3121 16.6715 16.3503ZM20.2437 18.0376H20.2209C20.2112 18.0417 20.2022 18.0449 20.1925 18.0482L20.1526 18.0522C20.1323 18.0083 20.1128 17.9644 20.0925 17.9205H20.0803L20.0559 17.8799C20.0388 17.8555 20.0201 17.8319 20.0038 17.8059L19.9868 17.7798H19.9737L19.9428 17.7367L19.8794 17.6766C19.8526 17.657 19.8274 17.6359 19.8014 17.6172C19.7753 17.6018 19.7518 17.583 19.7257 17.5676C19.6834 17.544 19.6428 17.5188 19.6062 17.4879C19.5281 17.4212 19.4468 17.357 19.3704 17.2887L19.3061 17.2244C19.285 17.1992 19.2639 17.174 19.2419 17.1488L19.2281 17.1391L19.2037 17.1139C19.1939 17.1008 19.1842 17.087 19.1752 17.0732C19.1557 17.0407 19.137 17.0073 19.1191 16.974C19.1028 16.9415 19.0874 16.9089 19.0728 16.8756L19.0451 16.7886L19.0183 16.6276C19.0004 16.5284 18.9931 16.4275 18.9768 16.3283C18.976 16.317 18.9736 16.3064 18.9719 16.2958C18.9467 16.2405 18.9207 16.1844 18.8947 16.1299C18.88 16.108 18.8646 16.086 18.8483 16.0649L18.802 16.0023L18.7979 15.9933H18.7841L18.7174 15.9071L18.5954 15.7632L18.5759 15.7372L18.5532 15.6835C18.5223 15.603 18.497 15.5209 18.4743 15.4371C18.4507 15.3436 18.4304 15.2485 18.4084 15.1549C18.4011 15.1362 18.397 15.1159 18.393 15.0956L18.3499 15.0167C18.3287 14.9825 18.3043 14.95 18.2824 14.9151C18.2531 14.8793 18.2222 14.8435 18.1929 14.8061L18.1856 14.7955L18.1702 14.7768L18.1246 14.7386C18.0921 14.7166 18.0579 14.6955 18.0238 14.6752C17.9425 14.6288 17.8603 14.5841 17.7741 14.5443C17.7497 14.5321 17.7245 14.5174 17.701 14.5036C17.6351 14.4654 17.57 14.4263 17.5066 14.3849C17.4895 14.371 17.4716 14.3589 17.4546 14.3442L17.4448 14.3353L17.4342 14.3214C17.4042 14.2987 17.3741 14.2759 17.3456 14.2507C17.3228 14.2344 17.3009 14.2174 17.2773 14.2027L17.2537 14.1905L17.2415 14.1669L17.2244 14.1466L17.2009 14.1263L17.1724 14.1043L17.1399 14.0832C17.1073 14.0661 17.0748 14.0482 17.0415 14.032C17 14.0133 16.9577 13.997 16.9154 13.9799C16.8886 13.9702 16.8618 13.9612 16.8349 13.9523C16.813 13.9458 16.7902 13.9393 16.7683 13.9328C16.7292 13.9262 16.6902 13.9222 16.6512 13.9181L16.5454 13.9149L16.4828 13.9181L16.421 13.9254L16.3674 13.9401L16.3169 13.958L16.2706 13.9791L16.2242 14.0076L16.182 14.0393L16.1421 14.0791L16.1015 14.123C16.0763 14.1588 16.0502 14.1946 16.0275 14.232C16.0079 14.2645 15.9909 14.2971 15.9738 14.3304L15.9527 14.3662L15.8974 14.5345C15.8949 14.5825 15.8917 14.6296 15.8925 14.6776C15.8933 14.6979 15.8941 14.7183 15.8941 14.7386L15.9209 14.9484C15.9388 15.0655 15.9616 15.1818 15.9795 15.2989C15.9892 15.3696 16.0014 15.4404 16.0031 15.5119C16.0039 15.5363 16.0055 15.5615 16.0063 15.5867L15.9974 15.5851C15.9852 15.8169 15.8892 16.0332 15.786 16.2373L15.1834 17.1488C15.1403 17.2163 15.1232 17.2431 15.1679 17.3228C15.2216 17.4098 15.3534 17.4855 15.4225 17.5603C15.4517 17.592 15.4794 17.6237 15.5054 17.6579L15.5209 17.679C15.5347 17.7018 15.5469 17.7237 15.5591 17.7465C15.6054 17.8498 15.6193 17.9994 15.6225 18.1075C15.581 18.3848 15.4257 18.5678 16.3503 18.6296C16.4503 18.645 16.4284 18.8353 16.3462 18.8345C16.1559 18.828 15.8673 18.7857 15.7055 18.8524L15.69 18.8589L15.6762 18.8678L15.664 18.8776L15.6534 18.8882L15.6445 18.9004L15.638 18.9134L15.6331 18.9264L15.6298 18.9394L15.629 18.9532L15.6298 18.9671L15.6331 18.9809L15.6388 18.9939C15.6493 19.0126 15.6607 19.0297 15.6729 19.0476C15.7054 19.0988 15.7437 19.1655 15.7681 19.2208C15.7762 19.2704 15.7835 19.3192 15.7876 19.3655C15.7868 19.3988 15.7843 19.4322 15.7803 19.4655L15.7713 19.5477C15.7648 19.5883 15.7575 19.6273 15.7485 19.6672C15.7282 19.7485 15.7038 19.829 15.6819 19.9095L15.6672 19.9705C15.6624 19.9981 15.6575 20.0258 15.655 20.0543L15.6558 20.1055L15.6583 20.1299L15.664 20.1543L15.6713 20.177L15.6811 20.2006L15.6933 20.2234L15.7087 20.2462L15.7274 20.2697L15.7502 20.2933L15.777 20.3169L15.8079 20.3405L15.8437 20.3649L15.8835 20.3893L15.9274 20.4129C15.9892 20.4373 16.051 20.4592 16.1128 20.4795C16.1771 20.4991 16.2413 20.5161 16.3064 20.5316C17.0838 20.7349 17.8555 20.6446 18.5979 20.3389C18.7003 20.2949 18.8012 20.247 18.9012 20.1966L19.0768 20.0892C19.0898 20.086 19.1028 20.0827 19.1159 20.0795L19.1175 20.0673C19.1289 20.0567 19.1403 20.0461 19.1516 20.0364C19.172 20.0209 19.1923 20.0063 19.2118 19.9916C19.2378 19.9729 19.263 19.955 19.2874 19.9355C19.2939 19.9307 19.2996 19.925 19.3037 19.9185L19.311 19.903L19.3444 19.8794C19.4021 19.8331 19.4468 19.7745 19.4907 19.716C19.5102 19.6875 19.5289 19.6599 19.546 19.6298C19.5761 19.5826 19.6062 19.5355 19.6347 19.4875L19.655 19.4517L19.7005 19.4379L19.729 19.4338C19.7485 19.4322 19.7672 19.4322 19.7859 19.4322L19.8095 19.4346L19.8168 19.3679C19.8192 19.3265 19.8184 19.2858 19.816 19.2435C19.8119 19.185 19.8038 19.1272 19.7957 19.0687C19.7957 18.9679 19.7932 18.8678 19.7989 18.767C19.8005 18.7467 19.8005 18.7255 19.8014 18.7044C19.8038 18.6727 19.8062 18.6402 19.8127 18.6084C19.8168 18.5889 19.8217 18.5686 19.8241 18.5491C19.8323 18.5239 19.8396 18.4987 19.8485 18.4743C19.8558 18.4564 19.864 18.4393 19.8713 18.4214L19.9014 18.3743L19.9323 18.3303C19.9542 18.31 19.9754 18.2897 19.999 18.271L20.0128 18.262L20.1299 18.1962L20.0892 18.3173V18.3181L20.2437 18.0376ZM16.4308 11.2721C18.5946 11.3038 21.1447 13.614 22.0872 16.3983C21.8448 16.434 21.6578 16.5316 21.5269 16.6902C21.0268 15.6054 20.4072 14.6418 19.6623 13.8685L19.6127 14.023C19.6591 14.1637 19.8079 14.3377 20.0201 14.5321C20.1575 14.6483 20.2697 14.811 20.3828 14.9964C20.2519 14.9866 20.151 14.9687 20.0786 14.9435L20.0925 15.1062C19.938 15.0004 19.8014 14.8809 19.6908 14.741C19.6891 14.8988 19.777 15.0509 19.9583 15.1907C20.177 15.3468 20.3958 15.481 20.6145 15.6087C20.6901 15.6689 20.7454 15.7396 20.782 15.8201C20.5316 15.8876 20.5592 16.0307 20.8292 16.2251C20.8495 16.2397 20.8764 16.2486 20.8991 16.2641C20.7772 16.3064 20.7097 16.6016 20.7861 16.7585C20.8593 16.8902 20.9349 17.0195 20.9813 17.1805L21.078 16.9358L21.2773 16.8805L21.3415 17.0244C21.2114 17.2675 21.3439 17.7001 21.4748 17.801C21.2342 18.1856 21.2 18.606 21.1854 18.9256C20.9105 18.6581 20.7544 18.0026 20.8463 17.6131C20.8471 17.5294 20.795 17.518 20.6926 17.5774C20.5625 17.5733 20.5031 17.4733 20.4934 17.309C20.4649 17.209 20.3112 17.2879 20.3527 17.383C20.3681 17.4107 20.3852 17.4367 20.4055 17.4619C20.4657 17.5278 20.5194 17.5969 20.547 17.6749L20.5462 17.8286L20.3982 17.8294C20.3096 17.7001 20.2031 17.5334 20.1697 17.5278C20.1502 17.5025 20.1307 17.4741 20.1022 17.4521C20.016 17.3854 19.9372 17.3212 19.8786 17.2586C19.8225 17.1984 19.7347 17.1448 19.6769 17.0911L19.6509 17.0382C19.6973 16.8114 19.5859 16.6414 19.4192 16.5072C19.3907 16.4942 19.3663 16.4771 19.3484 16.4568L19.2948 16.404C19.4208 16.2641 19.6054 16.2299 19.7591 16.36C19.877 16.4715 19.9689 16.6617 20.0055 16.8943C20.1844 16.6739 20.1193 16.4609 19.9038 16.2747C19.7103 16.26 19.5476 16.2316 19.4468 16.1779C19.3297 16.0868 19.4102 15.8876 19.594 15.9608C19.8404 16.0754 19.7444 15.7494 19.5094 15.7477C19.4354 15.7453 19.346 15.7591 19.2427 15.7884C19.063 15.7998 18.9061 15.7778 18.8191 15.6542C18.9581 15.5534 18.9858 15.4542 18.8508 15.3582C18.532 15.1305 18.6889 14.8581 18.9898 14.8939L19.2297 15.0362C19.3566 15.1102 19.4289 14.9939 19.3037 14.885C19.2118 14.8102 19.0923 14.7443 18.9662 14.6801L18.8191 14.4751C18.6889 14.6012 18.5548 14.6622 18.4157 14.6451C18.1604 14.5995 18.2084 14.3613 18.4987 14.3784C18.6003 14.3702 18.5767 14.2621 18.4873 14.284C18.336 14.3182 18.2832 14.3841 18.1962 14.3987C18.0449 14.4239 17.927 14.3719 17.8595 14.2466C17.8107 14.1238 17.788 14.0019 17.7904 13.8799L17.9929 13.7701C17.862 13.6758 17.644 13.6668 17.357 13.6864L17.109 13.6831C17.2 13.4733 17.3578 13.3318 17.605 13.3302C17.3537 13.2277 17.1309 13.231 16.9496 13.3887C16.6959 13.34 16.4991 13.4172 16.3584 13.6205L16.2454 13.6189C16.0405 13.0358 16.2275 12.7398 16.7089 12.661C16.6292 12.9049 16.6869 13.0147 16.9463 12.9285L17.3049 12.8496C17.3578 12.8643 17.4115 12.9082 17.4651 12.9797C17.5351 13.0366 17.6383 13.0732 17.7766 13.0895L18.3344 13.157L18.4515 13.3326L18.5556 13.4009L18.7011 13.392C18.7125 13.6457 18.8735 13.7652 19.1354 13.8026C19.0524 14.1068 19.1834 14.2653 19.4476 14.3247L19.3671 14.0181L19.3834 13.6067C18.4995 12.7878 17.5286 12.3861 16.565 12.3211C16.5682 11.9234 16.5267 11.5705 16.4308 11.2721ZM22.4328 16.4316C22.7531 16.5568 22.9808 16.8683 22.9808 17.2318C22.9808 17.4334 22.9109 17.6196 22.7938 17.766L22.7962 17.779L22.8735 18.2027L22.9353 18.6361L22.9719 18.9906C27.5069 17.0521 24.2298 9.57663 18.4483 11.4827L18.654 11.59L18.9215 11.7478L19.1858 11.9202L19.446 12.1088L19.7013 12.3121L19.9518 12.53L20.1957 12.7626L20.434 13.009L20.6649 13.2692L20.8894 13.5432L21.1049 13.8295L21.3122 14.1304L21.5106 14.4426L21.6993 14.7679L21.8782 15.1045L22.0457 15.4534L22.2026 15.8144L22.3474 16.186L22.4328 16.4316ZM18.1498 10.3085C18.3409 10.6752 18.4572 11.059 18.4076 11.1851L18.9679 11.0265L19.5127 10.9216L20.0429 10.8696L20.5552 10.8679L21.0487 10.9127L21.5212 11.0021L21.9725 11.133L22.401 11.3022L22.8052 11.5063L23.1833 11.7429L23.5354 12.0088L23.8599 12.3015L24.1559 12.6171L24.4226 12.9529L24.6584 13.3058L24.8633 13.6742L25.0349 14.0547L25.1739 14.4434L25.278 14.8394L25.3455 15.2387L25.3772 15.6388L25.3699 16.0372L25.3236 16.4308L25.2357 16.8162L25.2268 16.8423C27.5565 12.9683 23.1971 8.39836 18.1498 10.3085ZM16.9073 9.56281C21.5058 6.0906 29.0267 10.1816 26.967 17.3302C26.8084 17.8262 26.4848 18.1214 26.5791 18.8378C26.8499 19.8876 25.7757 21.4334 26.4156 22.8206C25.5423 22.6426 25.156 21.7456 25.3715 20.9674C25.5081 20.3584 25.4553 19.9185 25.2642 19.5273C25.1016 18.9337 24.7787 18.5775 25.152 17.9969C25.3382 17.9408 25.5968 17.8579 25.7749 17.9547C25.7757 17.9555 25.7757 17.9555 25.7765 17.9555L25.8692 18.0067L25.9245 17.9042L25.8318 17.8538C25.8318 17.8538 25.831 17.8538 25.831 17.853C25.6521 17.7554 25.5854 17.4936 25.5334 17.3066C25.5358 17.3001 25.539 17.2936 25.5415 17.2879C25.7196 17.2074 25.9651 17.0911 26.1554 17.1643C26.1554 17.1643 26.1562 17.1651 26.157 17.1651L26.2554 17.2033L26.2977 17.0951L26.1985 17.0569L26.1977 17.0561C26.0082 16.9829 25.9082 16.7325 25.8318 16.5544C25.8342 16.5471 25.8358 16.5406 25.8383 16.5333C26.0034 16.4316 26.2319 16.2844 26.4295 16.3324C26.4303 16.3324 26.4303 16.3324 26.4311 16.3332L26.5335 16.3584L26.5612 16.2454L26.4587 16.2202C26.4579 16.2202 26.4579 16.2202 26.4571 16.2194C26.2579 16.1706 26.127 15.9331 26.0278 15.7656C26.0286 15.7599 26.0294 15.7542 26.0302 15.7494C26.1798 15.6233 26.3855 15.4436 26.5888 15.4631H26.5905L26.6954 15.4737L26.7067 15.3574L26.6018 15.3477H26.6002C26.3953 15.3273 26.231 15.1102 26.1083 14.959C26.1091 14.9533 26.1091 14.9476 26.1091 14.9419C26.2376 14.7947 26.414 14.5849 26.6181 14.5727H26.6197L26.7254 14.567L26.7189 14.4507L26.6132 14.4572H26.6116C26.4075 14.4686 26.2132 14.2808 26.0692 14.1499C26.0684 14.1417 26.0668 14.1352 26.066 14.1271C26.1709 13.9628 26.3132 13.7303 26.5132 13.688C26.5132 13.688 26.514 13.6872 26.5148 13.6872L26.6181 13.666L26.5945 13.5522L26.4904 13.5741H26.4888C26.288 13.6164 26.066 13.4579 25.9033 13.3497C25.9025 13.3473 25.9017 13.3448 25.9009 13.3416C25.979 13.1635 26.0839 12.9082 26.2758 12.835C26.2766 12.835 26.2774 12.835 26.2774 12.8342L26.3766 12.7968L26.3351 12.6886L26.2359 12.726C26.2359 12.726 26.2351 12.726 26.2351 12.7268C26.0416 12.8 25.7952 12.6756 25.6179 12.5943C25.6171 12.5927 25.6171 12.5918 25.6163 12.5902C25.6651 12.4016 25.7277 12.1308 25.9066 12.0283L25.9074 12.0275L25.9993 11.9747L25.9407 11.8738L25.8497 11.9267C25.8489 11.9267 25.8489 11.9275 25.848 11.9275C25.6691 12.0308 25.4073 11.9478 25.2195 11.8958C25.2195 11.895 25.2187 11.8942 25.2187 11.8933C25.2382 11.6998 25.2585 11.4225 25.4195 11.2932C25.4203 11.2924 25.4211 11.2916 25.4211 11.2916L25.5033 11.2257L25.4309 11.1355L25.3479 11.2013C25.3479 11.2021 25.3471 11.2021 25.3471 11.2021C25.1853 11.3323 24.9121 11.2892 24.7186 11.2664C24.7072 11.0712 24.6844 10.7956 24.8226 10.6427L24.8235 10.6419L24.895 10.563L24.8088 10.4849L24.7373 10.5638L24.7364 10.5646C24.5982 10.7167 24.325 10.7191 24.1306 10.7264C24.1282 10.7248 24.1266 10.7232 24.1241 10.7216C24.0835 10.5305 24.0201 10.2613 24.1339 10.0906C24.1339 10.0897 24.1347 10.0889 24.1347 10.0889L24.1933 10.0003L24.0965 9.93605L24.0379 10.0247C24.0379 10.0247 24.0379 10.0255 24.0371 10.0255C23.9233 10.1971 23.6517 10.2394 23.4606 10.2768C23.4573 10.2751 23.4541 10.2727 23.4517 10.2711C23.3825 10.0889 23.2793 9.83197 23.3655 9.64575C23.3663 9.64494 23.3663 9.64494 23.3663 9.64413L23.411 9.54817L23.3061 9.49938L23.2614 9.59534C23.2614 9.59534 23.2606 9.59615 23.2606 9.59696C23.1735 9.78318 22.9133 9.86612 22.7296 9.93117C22.7271 9.93036 22.7247 9.92955 22.7222 9.92874C22.6287 9.75797 22.4881 9.51809 22.5474 9.32049V9.31886L22.5775 9.21722L22.4669 9.18469L22.436 9.28552V9.28715C22.3766 9.48475 22.1294 9.60428 21.9571 9.69617C21.9554 9.69536 21.9522 9.69454 21.9506 9.69454C21.8335 9.53841 21.6611 9.32049 21.692 9.11638V9.11476L21.7082 9.00986L21.5928 8.99278L21.5773 9.09687V9.0985C21.5456 9.30423 21.3155 9.4571 21.1569 9.57176H21.1553C21.0179 9.43189 20.817 9.23836 20.8203 9.03181V9.02937L20.8227 8.92367L20.7064 8.92204L20.7048 9.02775V9.02937C20.7007 9.23592 20.4942 9.41807 20.3527 9.55224C20.1998 9.43026 19.9786 9.26357 19.9575 9.05865C19.9575 9.05784 19.9567 9.05702 19.9567 9.05702L19.9461 8.95131L19.8306 8.96351L19.8412 9.06841C19.8412 9.06922 19.842 9.07003 19.842 9.07003C19.8632 9.27576 19.6802 9.48231 19.5558 9.63274C19.5542 9.63274 19.5517 9.63355 19.5501 9.63355C19.3842 9.53028 19.1443 9.38879 19.0996 9.18713C19.0996 9.18631 19.0988 9.18632 19.0988 9.1855L19.076 9.08223L18.963 9.10744L18.9858 9.21071V9.21234C19.0305 9.41319 18.8735 9.63843 18.767 9.80188C18.5922 9.71568 18.3401 9.5994 18.2759 9.40424C18.275 9.40343 18.275 9.40262 18.275 9.40262L18.2417 9.30179L18.1319 9.33838L18.1645 9.43921C18.1653 9.43921 18.1653 9.44002 18.1653 9.44083C18.2295 9.63518 18.0978 9.87262 18.0083 10.0458L17.9839 10.0117C17.8408 9.81489 17.3822 9.67259 16.9073 9.56281ZM20.8764 22.8995C21.2602 22.954 21.5887 23.1809 21.8627 23.5809C21.7904 23.4972 21.7196 23.4175 21.6481 23.3419C21.5212 23.2614 21.3334 23.2248 21.0935 23.2264L20.8764 22.8995ZM21.5001 20.4186C21.3203 19.6778 21.1301 19.0297 20.6308 18.7743C20.8007 17.1358 19.1679 18.4052 20.3128 19.0028C20.2958 19.2029 20.2502 19.4834 20.3063 19.755C20.486 20.6129 20.2331 20.9951 20.1835 21.2033C20.0689 21.6863 20.1266 22.1051 20.2632 22.4946C20.3511 22.3425 20.4519 22.2961 20.5665 22.3563C20.5478 22.449 20.6056 22.7962 20.6015 22.7954C20.5527 23.3427 20.8422 24.1607 21.4529 24.4266C21.5106 24.4478 21.5375 24.5063 21.4927 24.5885C21.3496 24.7861 21.2057 24.965 21.0626 25.0731C20.8422 25.2902 20.7276 25.5268 20.7186 25.7814C20.8642 25.7513 21.0146 25.6244 21.1683 25.4008C21.5391 25.3431 21.8091 24.9853 21.6708 24.5803C21.4854 24.3039 21.3203 24.0176 21.1951 23.7111C21.1463 23.5232 21.1878 23.4208 21.3203 23.4037C21.5179 23.9135 21.8196 24.4039 22.2254 24.8731C22.0506 25.2187 21.818 25.4968 21.5383 25.7196C21.0764 26.0481 20.8739 26.4221 20.7658 26.8116L20.4218 26.9426C20.547 27.1914 20.9422 27.2044 21.609 26.9816C21.5984 26.7246 21.7237 26.4783 21.9839 26.2424C22.2034 26.1505 22.3514 25.8887 22.4677 25.5504L22.5141 25.5813L22.3352 26.0424C22.1425 26.2327 22.0124 26.4221 21.944 26.6116C21.5236 27.2873 22.8906 27.2012 23.1622 26.8352C22.7084 26.4717 22.5255 25.97 22.671 25.6041C22.8345 25.3268 22.8735 25.0812 22.7873 24.8649C22.5442 24.4722 22.3002 24.1225 22.0563 23.816C22.2839 24.0005 22.6588 24.1656 22.6978 24.5307C22.771 24.7169 22.8922 24.8649 23.0841 24.9584C22.6564 25.2959 22.9467 26.5376 23.4769 26.6328C23.5305 26.5157 23.4793 26.3864 23.3232 26.2449C23.4419 26.1896 23.5614 26.2148 23.681 26.3197C23.5818 27.3101 25.1308 27.7769 24.6047 26.275C24.8649 26.3977 24.9593 26.2506 24.7779 26.0912L24.212 25.6935C23.9461 25.5537 23.9566 25.2178 24.1973 24.7202L24.2567 24.7104C24.3047 25.291 24.4884 25.6439 24.808 25.7684C24.7243 25.3886 25.082 25.3105 25.1455 25.6789L25.091 26.4685C25.0511 27.1198 25.5106 27.1475 25.4837 26.4685L25.439 25.9123C25.5911 25.6935 25.7131 25.5512 25.7667 25.5797L25.6423 26.0416C25.4179 26.662 25.9432 26.6401 26.0099 25.7139C26.0375 25.0268 25.8765 24.4673 25.5586 24.0152C25.5366 24.1461 25.5577 24.3014 25.6724 24.5063C25.8253 25.0048 25.3398 25.0975 25.2699 24.5763L25.2902 24.2136C25.1991 24.0241 25.1585 23.829 25.1902 23.6273C25.0349 23.4427 24.9641 23.241 24.9324 23.0312C24.9479 22.8784 24.8145 22.71 24.5714 22.5816C24.3616 22.0823 24.1006 21.9278 23.8046 22.0083C23.6834 22.0262 23.6663 22.0807 23.755 22.1717C24.2778 22.462 24.6763 22.906 24.8527 23.6273L24.9121 23.8062C24.7852 23.8753 24.7852 23.9957 24.843 24.1388C24.7747 24.1819 24.699 24.199 24.6202 24.2046C24.5462 24.1054 24.5226 23.9981 24.5714 23.8778C24.6316 23.4435 24.4234 23.2329 24.1144 23.0345L24.0786 23.1134C24.1241 23.1882 24.129 23.2394 24.0924 23.2671C24.164 23.3403 24.2258 23.4248 24.2681 23.533C24.3063 23.5899 24.2957 23.6265 24.2632 23.6541C24.3169 23.7013 24.3941 23.9339 24.4762 24.2046C24.5681 24.2681 24.6511 24.3722 24.7186 24.5218C24.7495 24.7047 24.8828 24.8283 25.0617 24.9251C25.1959 25.0324 25.2691 25.1894 25.2796 25.3959C24.843 25.3878 24.4933 24.8511 24.1876 24.2534C24.0973 24.0973 23.9656 23.9729 23.7403 23.9152C23.4508 23.6769 23.6745 23.2573 24.0127 23.6387C24.1624 23.167 23.7468 22.7914 22.945 22.4799C22.9703 22.5808 23.0556 22.6718 23.2288 22.7483L23.2085 22.8231C22.7775 22.7206 22.4157 22.5547 22.1815 22.2791C21.5415 21.1317 23.0443 21.7765 23.4134 22.4848C23.5305 21.9131 22.9621 21.3805 22.314 21.235L21.6245 20.6373L21.5871 21.0219L21.4106 21.0349C21.6269 21.3529 21.7416 21.6708 21.6741 21.9888C21.635 22.1156 21.5903 22.1254 21.5399 22.018L21.3708 21.7798L21.3911 22.0831C21.1463 22.0595 21.0756 21.7489 21.1512 21.3553C20.9048 20.9382 20.93 20.5405 21.2268 20.16L21.5001 20.4186ZM23.5126 20.4795C23.6712 19.9843 23.5931 19.7322 23.3728 19.6428C23.1231 19.5135 22.8044 19.8835 23.0573 20.0933C23.1109 19.9705 23.1166 19.9672 23.2353 19.9185C23.4224 19.9908 23.4061 20.2893 23.3866 20.4527C21.9969 20.5365 21.6676 18.1425 21.7058 18.0287C21.0675 19.1899 21.9871 20.9617 22.8849 21.1748C23.0117 20.2413 23.9461 20.5535 23.7623 21.0292C23.685 21.3651 23.3256 21.261 23.2988 21.0179C23.2134 21.0577 23.2044 21.0951 23.2012 21.2081C23.9078 22.2823 24.3331 20.5527 23.5126 20.4795ZM22.1465 16.652C22.4718 16.652 22.7361 16.9171 22.7361 17.2415C22.7361 17.566 22.4718 17.8311 22.1465 17.8311C21.8221 17.8311 21.5578 17.566 21.5578 17.2415C21.5578 16.9171 21.8221 16.652 22.1465 16.652ZM22.1465 16.9634C22.2994 16.9634 22.4246 17.0886 22.4246 17.2415C22.4246 17.3944 22.2994 17.5196 22.1465 17.5196C21.9936 17.5196 21.8692 17.3944 21.8692 17.2415C21.8692 17.0886 21.9936 16.9634 22.1465 16.9634ZM22.5051 17.9969C22.5726 18.3564 22.623 18.7255 22.6556 19.1053L22.2539 19.2557C22.1799 18.8451 22.088 18.4458 21.9798 18.062C22.0335 18.0726 22.0896 18.0783 22.1465 18.0783C22.275 18.0783 22.397 18.049 22.5051 17.9969ZM15.568 31.3019V33.0771L15.5469 33.0698L14.9183 32.8226L14.306 32.5453L13.7091 32.2395L13.1293 31.9061L12.5674 31.5459L12.0243 31.1604L11.5006 30.7498L10.998 30.3148L10.5166 29.8569L10.0572 29.3764L9.62136 28.8738L9.2099 28.3518L8.82283 27.8094L8.46178 27.2483L8.12757 26.6702L7.82182 26.0741L7.54372 25.4626L7.2949 24.8357L7.07697 24.1941L6.88994 23.5387L6.73462 22.8711L6.61265 22.1912L6.52401 21.5009L6.47035 20.7999L6.45245 20.0892L6.47035 19.3793L6.52401 18.6784L6.61265 17.9872L6.73462 17.3074L6.88994 16.639L7.07697 15.9827L7.2949 15.3403L7.54372 14.7126L7.82182 14.0995L8.12839 13.5034L8.4626 12.9236L8.82283 12.3617L9.2099 11.8185L9.62217 11.2949L10.0572 10.7923L10.5166 10.3109L10.998 9.85148L11.5014 9.41563L12.0251 9.00417L12.5683 8.6171L13.1302 8.25606L13.7099 7.92184L14.306 7.61528L14.9191 7.33799L15.5469 7.08917L16.1893 6.87124L16.8447 6.68421L17.5131 6.5289L18.1929 6.40692L18.8841 6.31828L19.5851 6.26462L20.2958 6.24673L21.0057 6.26462L21.7066 6.31828L22.397 6.40692L23.076 6.5289L23.7436 6.68421L24.3982 6.87042L25.0389 7.08917L25.6651 7.33718L26.2758 7.61528L26.871 7.92184L27.4484 8.25606L28.0086 8.6171L28.5502 9.00335L29.0714 9.41482L29.5723 9.85067L30.0513 10.3101L30.5083 10.7915L30.9425 11.294L31.3524 11.8177L31.737 12.3609L32.0964 12.9228L32.4282 13.5026L32.7331 14.0986L33.0096 14.7118L33.2568 15.3395L33.4739 15.9819L33.6593 16.6382L33.813 17.3066L33.935 17.9864L34.0228 18.6776L34.0756 19.3793L34.0935 20.0892L34.0756 20.7999L34.0228 21.5009L33.935 22.1921L33.813 22.8711L33.6593 23.5395L33.4739 24.1941L33.2568 24.8365L33.0096 25.4634L32.7331 26.0749L32.429 26.671L32.0964 27.2499L31.737 27.8102L31.3524 28.3526L30.9425 28.8746L30.5091 29.3772L30.0513 29.8569L29.5723 30.3156L29.0714 30.7498L28.5502 31.1604L28.0086 31.5467L27.4492 31.9061L26.8718 32.2395L26.2766 32.5453L25.6659 32.8226L25.1121 33.0413V31.2897L27.585 30.1627C27.7037 30.0676 27.7427 29.9187 27.6638 29.6919L27.585 29.4203V27.5386C27.5907 27.3077 27.4825 27.1914 27.2597 27.189H26.2855C25.8928 27.189 25.8033 26.9564 26.0985 26.5905C26.5856 25.3976 26.2571 24.1705 25.1121 22.9109C24.8836 22.8133 24.7169 22.6214 24.6877 22.2246C24.6413 21.7375 24.4681 21.37 24.1884 21.1024C24.1811 20.7113 24.0908 20.1901 23.8208 20.1388L23.8468 19.9892L23.7436 19.7989C23.785 19.5891 23.7712 19.4005 23.7021 19.2321C24.0745 19.0085 24.4096 18.7255 24.7137 18.3921C24.682 18.5922 24.6942 18.7776 24.734 18.954C24.7812 19.2151 24.882 19.4419 24.956 19.6859C25.1812 20.0494 25.1512 20.5641 25.0284 21.1341C24.9861 21.6586 25.0804 22.0985 25.3382 22.4376C25.7513 22.9296 26.3018 23.228 26.8271 23.0809C26.6092 22.4295 26.7409 21.5732 26.9019 20.8593L26.9808 20.3502L26.9531 18.85C26.9735 18.6028 27.0182 18.3547 27.1532 18.0994L27.3784 17.4082C29.5455 8.98384 20.3413 5.4295 16.1624 9.78724C16.9097 9.95801 17.5676 10.1751 17.9815 10.7452C18.2173 11.0696 18.0766 11.2737 17.7684 11.1761C17.6969 11.1534 17.3228 11.0582 16.9463 11.0045C16.7853 10.9696 16.5934 10.9257 16.4349 10.9265L16.3657 10.9297L16.3015 10.9371L16.2421 10.9476L16.1885 10.9623L16.1405 10.9826L16.0998 11.0094L16.0673 11.0428L16.0454 11.0842L16.0364 11.1314L16.0413 11.1826L16.0592 11.2371L16.0876 11.2924C16.1088 11.3428 16.1283 11.3932 16.147 11.4445C16.1608 11.4827 16.173 11.5209 16.1852 11.5591C16.1966 11.5965 16.2072 11.6348 16.2169 11.673C16.2259 11.7104 16.2348 11.7486 16.2421 11.7868C16.2495 11.8242 16.256 11.8616 16.2608 11.8998C16.2657 11.9373 16.2698 11.9747 16.273 12.0121C16.2755 12.0495 16.2779 12.0869 16.2787 12.1243C16.2787 12.1617 16.2787 12.1991 16.2779 12.2365C16.2755 12.2731 16.273 12.3105 16.269 12.3479C16.2641 12.3934 16.2576 12.439 16.2495 12.4845L16.0584 12.6707C16.0405 12.6927 16.0234 12.7146 16.0071 12.7374C15.9917 12.7602 15.977 12.7829 15.9632 12.8065C15.9494 12.8309 15.9364 12.8553 15.925 12.8805C15.9136 12.9065 15.903 12.9334 15.8941 12.9602L15.8778 13.0163L15.8648 13.0741L15.8551 13.135L15.8502 13.1985L15.8494 13.2643L15.8526 13.3335L15.86 13.405L15.8721 13.4798L15.8884 13.5571L15.9104 13.6408C15.9299 13.6847 15.9486 13.7278 15.96 13.775C15.9632 13.7945 15.9657 13.8132 15.9665 13.8335C15.9665 13.8547 15.9648 13.875 15.9608 13.8962C15.9543 13.9303 15.9437 13.962 15.9307 13.9946L15.8876 14.0523L15.8453 14.1157L15.8095 14.1775L15.7794 14.2401L15.7551 14.3019L15.7347 14.3637L15.7193 14.4247L15.7087 14.4849L15.7014 14.5459L15.6973 14.6052L15.6965 14.6654L15.6981 14.724L15.7022 14.7833L15.7087 14.8411L15.725 14.9565C15.7412 15.0509 15.7591 15.1452 15.7754 15.2395L15.7908 15.3501L15.7965 15.4054L15.8006 15.4607L15.8014 15.5152L15.8006 15.5697L15.7965 15.6241L15.7892 15.6786L15.7778 15.7331L15.7632 15.7876L15.7445 15.8413C15.7079 15.9128 15.6697 15.9836 15.6306 16.0543C15.5851 16.1356 15.5371 16.2161 15.4883 16.2958C15.4322 16.3844 15.3753 16.4723 15.3168 16.5601C15.2005 16.7317 15.0809 16.9008 14.9638 17.0716C14.9573 17.087 14.9508 17.1017 14.946 17.1171C14.9394 17.1366 14.9354 17.1561 14.9313 17.1757C14.9289 17.1952 14.9273 17.2139 14.9264 17.2334C14.9264 17.2521 14.9281 17.2708 14.9297 17.2895C14.9329 17.3074 14.9362 17.3245 14.9419 17.3424C14.9468 17.3594 14.9533 17.3757 14.9606 17.392C14.9679 17.4074 14.976 17.422 14.9866 17.4367C14.9964 17.4505 15.0069 17.4635 15.0183 17.4757C15.0297 17.4863 15.0411 17.4969 15.0525 17.5066C15.1427 17.5847 15.2354 17.6611 15.3151 17.7506C15.3363 17.7758 15.3558 17.8018 15.3737 17.8294L15.3826 17.8465L15.3899 17.8644L15.3956 17.8855L15.3997 17.9075L15.4046 17.9563V18.0116C15.4013 18.0953 15.3924 18.1783 15.3891 18.262V18.3271L15.3908 18.3596L15.394 18.3921L15.3989 18.4239L15.4054 18.4556L15.4143 18.4857L15.4257 18.5157L15.4404 18.5442L15.4574 18.5719L15.4778 18.5979L15.5022 18.6231L15.529 18.645L15.5599 18.6654L15.5729 18.6719C15.5518 18.689 15.5322 18.7077 15.5135 18.7272L15.4859 18.7597L15.4631 18.7938L15.4452 18.8288L15.433 18.8654L15.4249 18.9028L15.4225 18.9418L15.4257 18.9809L15.4339 19.0207L15.4461 19.0606C15.4542 19.0817 15.4631 19.102 15.4737 19.1224C15.4851 19.1443 15.4973 19.1655 15.5103 19.1858C15.5225 19.2045 15.5347 19.2216 15.5469 19.2403L15.5575 19.2671L15.5656 19.2996L15.5697 19.3387C15.5705 19.3614 15.5705 19.3826 15.5697 19.4053C15.568 19.4297 15.5656 19.4541 15.5623 19.4785C15.555 19.5314 15.5444 19.5826 15.5322 19.6338L15.5192 19.6851C15.4989 19.7615 15.4745 19.8371 15.4477 19.9119C15.4404 19.9331 15.4347 19.955 15.429 19.977C15.4249 19.9981 15.4217 20.0193 15.4184 20.0404C15.4168 20.0624 15.416 20.0827 15.4151 20.1039C15.416 20.125 15.4176 20.1445 15.42 20.1657C15.4233 20.186 15.4265 20.2055 15.4322 20.2258L15.4517 20.2836C15.4599 20.3023 15.4688 20.321 15.4786 20.3397C15.49 20.3576 15.5013 20.3746 15.5135 20.3917C15.5274 20.4088 15.5412 20.4251 15.5558 20.4413C15.5713 20.4576 15.5875 20.473 15.6046 20.4877L15.6428 20.5178L15.7209 20.5649L15.8014 20.608L15.8843 20.6479L15.9714 20.6845L16.0616 20.7178L16.1543 20.7479C16.2031 20.7617 16.2511 20.7755 16.2999 20.7877C16.3503 20.7991 16.4015 20.8097 16.4519 20.8203C16.5048 20.83 16.5576 20.839 16.6113 20.8471C16.6666 20.8544 16.7219 20.8609 16.7772 20.8674C16.8349 20.8731 16.8927 20.878 16.9504 20.8821C17.0431 20.8877 17.1813 20.8918 17.274 20.8943C17.3106 20.9707 17.3448 21.0471 17.3765 21.1236C17.4448 21.2984 17.5042 21.4862 17.557 21.6871C17.5595 21.6977 17.5619 21.7082 17.5652 21.718C17.6335 21.9847 17.6888 22.2726 17.7319 22.5799C17.7636 22.8068 17.7066 22.9263 17.5603 22.9369C16.6455 23.2484 15.8526 23.62 15.268 24.0965C14.3288 24.8405 14.0572 25.6968 14.8622 26.7336C15.0313 27.0166 14.9386 27.1686 14.5857 27.1629L13.4253 27.1434C13.1578 27.1434 13.031 27.2711 13.0432 27.5248L13.0911 28.8315C13.0838 29.1113 13.0562 29.3739 12.9716 29.5902C12.8537 29.8561 12.8545 30.0708 13.0293 30.2099L15.568 31.3019ZM20.2958 5.76208C28.1826 5.76208 34.5782 12.2023 34.5782 20.0892C34.5782 27.9761 28.1826 34.3944 20.2958 34.3944C12.4089 34.3944 5.96862 27.9761 5.96862 20.0892C5.96862 12.2023 12.4089 5.76208 20.2958 5.76208ZM23.0247 3.56003L21.8863 3.40797L21.6082 2.04999C20.7129 1.97518 19.8103 1.97924 18.902 2.04999L18.6613 3.42098L17.5099 3.57304L16.8902 2.31671C16.0088 2.48015 15.1403 2.7176 14.2849 3.02741L14.3987 4.39759L13.3351 4.84646L12.4008 3.80561C11.5526 4.20894 10.7874 4.66919 10.0727 5.16603L10.5459 6.45652L9.62949 7.16967L8.47561 6.39635C7.76816 7.00541 7.13877 7.64618 6.56467 8.30891L7.3567 9.4449L6.65087 10.3556L5.3246 9.91085C4.81068 10.6793 4.36344 11.4607 3.98206 12.256L5.03674 13.1448L4.59356 14.2157L3.20305 14.1295C2.8973 14.9785 2.67368 15.8445 2.50129 16.7203L3.75844 17.3163L3.60313 18.4645L2.23864 18.7499C2.16952 19.655 2.17928 20.5519 2.24352 21.444L3.60801 21.6855L3.75844 22.8345L2.50536 23.4606C2.68181 24.3478 2.91519 25.2162 3.212 26.0643L4.59356 25.9391L5.0408 27.0092L3.97556 27.946C4.39596 28.7454 4.85459 29.5195 5.35468 30.2652L6.65493 29.8033L7.35263 30.7189L6.59476 31.8842C7.1843 32.5575 7.81857 33.1909 8.50163 33.7845L9.63355 32.9941L10.55 33.7065L10.1117 35.0238C10.8541 35.528 11.6347 35.9728 12.4438 36.3704L13.3351 35.3173L14.4028 35.7621L14.3255 37.1478C15.1655 37.4478 16.0315 37.6804 16.9252 37.8471L17.5147 36.5956L18.6637 36.7461L18.9435 38.1065C19.8347 38.1797 20.7332 38.1797 21.6375 38.1065L21.8831 36.7461L23.0329 36.5908L23.6566 37.8341C24.5234 37.6902 25.3894 37.4519 26.2563 37.1348L26.14 35.7532L27.2077 35.3173L28.142 36.3574C28.9364 35.9728 29.7114 35.5206 30.466 35.0018L30.0017 33.6983L30.9092 32.9941L32.0712 33.7626C32.7404 33.1836 33.3755 32.5445 33.9781 31.8459L33.1909 30.71L33.8919 29.8033L35.2133 30.2481C35.6906 29.5276 36.1411 28.7478 36.5655 27.9078L35.506 27.0141L35.954 25.9473L37.3486 26.0294C37.6324 25.2016 37.8634 24.3339 38.0414 23.4256L36.79 22.8385L36.9445 21.679L38.3 21.4009C38.3691 20.5047 38.3781 19.6078 38.3 18.7117L36.9364 18.4726L36.79 17.3285L38.0382 16.6951C37.8617 15.799 37.6316 14.9256 37.3218 14.0832L35.9508 14.2141L35.5271 13.1481L36.5436 12.221C36.1492 11.4071 35.6946 10.6264 35.1799 9.87913L33.8935 10.3581L33.1852 9.43108L33.9553 8.27151C33.3454 7.57544 32.7087 6.93954 32.0452 6.36301L30.9124 7.1591L29.9879 6.45571L30.427 5.13432C29.6772 4.62772 28.9039 4.17641 28.1005 3.79016L27.215 4.84077L26.1367 4.40003L26.2213 3.00952C25.3837 2.70133 24.5136 2.46714 23.6094 2.30614L23.0247 3.56003ZM0 0H40.546V37.5901C40.546 38.9441 39.4376 40.0516 38.0845 40.0516H22.4881C21.4643 40.0516 20.7593 40.7907 20.3161 42.2536C19.8957 40.9973 19.2744 40.0467 18.0262 40.0516H2.46145C1.10834 40.0516 0 38.9441 0 37.5901V0Z" fill="#054589"></path>
  <path d="M144.156 11.6782H136.866V16.0563H144.156V11.6782Z" fill="#054589"></path>
  <path d="M175.806 8.60473V12.5583H177.08C177.856 12.5583 178.455 12.3868 178.87 12.0493C179.284 11.707 179.491 11.2256 179.491 10.5954C179.491 9.97003 179.278 9.48376 178.854 9.13004C178.429 8.782 177.84 8.60473 177.08 8.60473H175.806ZM167.576 25.7283V2.01404H177.361C180.802 2.01404 183.319 2.70523 184.912 4.0876C186.505 5.46998 187.301 7.65902 187.301 10.6612C187.301 13.4593 186.585 15.5052 185.156 16.7933C183.723 18.0822 181.45 18.7286 178.338 18.7286H175.774V25.7283H167.576ZM146.049 23.7052L148.661 17.0649C149.836 17.9163 150.876 18.5408 151.794 18.9335C152.713 19.3255 153.574 19.5247 154.371 19.5247C154.932 19.5247 155.373 19.4141 155.692 19.1929C156.016 18.9718 156.176 18.6733 156.176 18.292C156.176 17.6341 155.373 17.1308 153.765 16.7876C153.244 16.6664 152.84 16.5778 152.548 16.5111C150.85 16.0801 149.548 15.3117 148.646 14.2115C147.743 13.1113 147.292 11.7395 147.292 10.0977C147.292 7.54843 148.168 5.47486 149.92 3.877C151.672 2.27913 153.971 1.47735 156.812 1.47735C158.123 1.47735 159.408 1.65462 160.673 2.01404C161.936 2.36776 163.216 2.90933 164.501 3.63386L162.01 9.83749C161.225 9.23493 160.433 8.77062 159.637 8.45023C158.846 8.13472 158.077 7.97453 157.327 7.97453C156.76 7.97453 156.318 8.07374 156.005 8.27296C155.692 8.47219 155.537 8.75435 155.537 9.10808C155.537 9.7765 156.675 10.3685 158.946 10.8718C159.308 10.9605 159.589 11.0263 159.785 11.0711C161.353 11.4354 162.584 12.1875 163.487 13.3211C164.39 14.4546 164.84 15.8256 164.84 17.4349C164.84 20.0557 163.933 22.2008 162.112 23.8654C160.29 25.5299 157.922 26.3594 155.007 26.3594C153.514 26.3594 152.023 26.1382 150.531 25.6958C149.033 25.2535 147.542 24.5899 146.049 23.7052Z" fill="#054589"></path>
  <path fill-rule="evenodd" clip-rule="evenodd" d="M91.4638 25.8654V1.76326H107.581V8.29866H99.9606V10.6194H106.872V16.7954H99.9606V19.33H107.778V25.8654H91.4638Z" fill="#054589"></path>
  <path fill-rule="evenodd" clip-rule="evenodd" d="M63.9294 11.3276C63.1374 10.5689 62.3332 10.0014 61.507 9.62974C60.6865 9.25325 59.8156 9.06866 58.9057 9.06866C57.4883 9.06866 56.3483 9.50695 55.4879 10.3779C54.6284 11.2488 54.1958 12.4124 54.1958 13.8614C54.1958 15.2788 54.6057 16.4075 55.4318 17.2507C56.2531 18.0988 57.3598 18.5201 58.7422 18.5201C59.5733 18.5201 60.4222 18.3404 61.2817 17.9866C62.1469 17.6272 63.0862 17.0653 64.1091 16.2847L63.8278 25.3539C62.8837 25.7361 61.9396 26.0288 60.9955 26.2191C60.0506 26.4102 59.1073 26.5061 58.1633 26.5061C56.9882 26.5061 55.8596 26.3769 54.7748 26.1134C53.6843 25.8483 52.7069 25.4726 51.8238 24.9888C49.6942 23.7633 48.0865 22.207 46.9969 20.3294C45.9016 18.4526 45.3559 16.3001 45.3559 13.8614C45.3559 12.0644 45.6649 10.3949 46.2886 8.8548C46.9074 7.32117 47.8117 5.96562 48.9924 4.79223C50.1894 3.60582 51.5774 2.70728 53.1509 2.09984C54.7301 1.48753 56.432 1.18422 58.2641 1.18422C59.2423 1.18422 60.2027 1.28505 61.1524 1.48753C62.1022 1.69001 63.03 1.99332 63.9294 2.40315V11.3276Z" fill="#054589"></path>
  <path fill-rule="evenodd" clip-rule="evenodd" d="M121.255 17.1044H124.857L124.12 14.373C123.755 12.9914 123.509 11.9229 123.379 11.1756C123.244 10.434 123.166 9.73145 123.131 9.0736H122.986C122.952 9.73145 122.868 10.434 122.739 11.1756C122.603 11.9229 122.356 12.9914 121.997 14.373L121.255 17.1044ZM109.762 25.8654L118.356 1.76326H128.004L136.434 25.8654H127.116L126.34 22.8364H119.805L119.063 25.8654H109.762Z" fill="#054589"></path>
  <path fill-rule="evenodd" clip-rule="evenodd" d="M75.8243 7.9673V12.6763H77.1733C77.9987 12.6763 78.6281 12.4739 79.072 12.0746C79.516 11.6761 79.7405 11.1029 79.7405 10.3547C79.7405 9.58549 79.516 8.99514 79.072 8.5853C78.6281 8.17547 77.9987 7.9673 77.1733 7.9673H75.8243ZM67.3275 25.8659V1.76286H78.2296C81.3871 1.76286 83.8038 2.45974 85.4733 3.8535C87.1419 5.24726 87.9738 7.25822 87.9738 9.87742C87.9738 11.5916 87.5517 13.0024 86.715 14.1091C85.8725 15.2223 84.7422 15.868 83.3151 16.0542L89.7497 25.8659H80.0389L75.8243 17.9139V25.8659H67.3275Z" fill="#054589"></path>
  <path d="M72.2322 34.1443C71.9598 34.1443 71.7093 34.1044 71.4792 34.0239C71.2499 33.9442 71.0515 33.8231 70.8864 33.6645C70.7197 33.5059 70.5929 33.3067 70.501 33.0701C70.4091 32.8318 70.3652 32.5586 70.3652 32.2464C70.3652 31.9561 70.4075 31.6934 70.4953 31.4568C70.5823 31.2218 70.7075 31.0185 70.8742 30.8502C71.0328 30.6883 71.2296 30.5631 71.4654 30.4745C71.7004 30.3858 71.9574 30.3411 72.2355 30.3411C72.3891 30.3411 72.5282 30.3509 72.6526 30.3671C72.7762 30.3842 72.8909 30.407 72.995 30.4346C73.1047 30.4647 73.2039 30.5005 73.2942 30.5387C73.3828 30.5777 73.4609 30.6135 73.5276 30.6452V31.5332H73.4211C73.3747 31.495 73.317 31.4478 73.247 31.3942C73.1779 31.3405 73.0982 31.2868 73.0096 31.2348C72.9193 31.1835 72.8218 31.1388 72.7169 31.1039C72.6128 31.0673 72.4997 31.0486 72.3802 31.0486C72.2477 31.0486 72.1224 31.0705 72.0013 31.1112C71.8825 31.1543 71.772 31.2226 71.6695 31.3193C71.5735 31.412 71.4955 31.5365 71.4345 31.6893C71.3751 31.843 71.3459 32.0292 71.3459 32.248C71.3459 32.4773 71.3784 32.67 71.4426 32.8229C71.5077 32.9766 71.589 33.0977 71.6866 33.1864C71.7874 33.2766 71.8988 33.3409 72.0216 33.3791C72.1452 33.4173 72.2655 33.4368 72.3851 33.4368C72.4997 33.4368 72.6144 33.4181 72.7258 33.3848C72.8388 33.3514 72.9413 33.3043 73.0372 33.2457C73.1169 33.1986 73.1917 33.1482 73.26 33.0929C73.3292 33.04 73.3861 32.9937 73.43 32.9538H73.5276V33.8296C73.4365 33.8711 73.3487 33.9093 73.2649 33.9459C73.1828 33.9808 73.0942 34.0125 73.0023 34.0386C72.8827 34.0727 72.7697 34.0987 72.6664 34.1166C72.5607 34.1353 72.4168 34.1443 72.2322 34.1443Z" fill="#054589"></path>
  <path d="M75.841 33.3651C75.8971 33.2944 75.9402 33.209 75.9695 33.1098C75.9988 33.0106 76.0118 32.8748 76.0118 32.6991C76.0118 32.5373 75.9988 32.4007 75.9679 32.2909C75.9386 32.1811 75.8971 32.0941 75.8459 32.0283C75.7939 31.9608 75.7296 31.9136 75.6564 31.8843C75.5833 31.8567 75.5036 31.8429 75.4182 31.8429C75.332 31.8429 75.2572 31.8542 75.1905 31.8786C75.1246 31.9014 75.0604 31.9469 75.001 32.0161C74.9457 32.0787 74.9026 32.1673 74.8709 32.2787C74.8384 32.3901 74.8238 32.5292 74.8238 32.6991C74.8238 32.8504 74.8376 32.9797 74.8644 33.0903C74.8921 33.2017 74.9335 33.2903 74.9872 33.3578C75.0401 33.4212 75.1027 33.4676 75.1767 33.4977C75.2482 33.5269 75.332 33.5424 75.4255 33.5424C75.5052 33.5424 75.5833 33.5286 75.6548 33.5009C75.728 33.4733 75.7906 33.4293 75.841 33.3651ZM76.9307 32.6942C76.9307 33.148 76.7973 33.5058 76.533 33.7668C76.2671 34.0278 75.8963 34.1596 75.4182 34.1596C74.9392 34.1596 74.5684 34.0278 74.3025 33.7668C74.0383 33.5058 73.9065 33.148 73.9065 32.6942C73.9065 32.2356 74.0399 31.8786 74.3058 31.6168C74.5717 31.3558 74.9425 31.2257 75.4182 31.2257C75.8988 31.2257 76.272 31.3574 76.5347 31.6201C76.7973 31.8811 76.9307 32.2405 76.9307 32.6942Z" fill="#054589"></path>
  <path d="M80.2705 34.0725H79.3841V32.7031C79.3841 32.5917 79.3784 32.4803 79.3662 32.3705C79.3549 32.2607 79.3353 32.1778 79.3077 32.1257C79.2744 32.0648 79.2272 32.0208 79.1638 31.9932C79.1003 31.9655 79.0125 31.9517 78.9003 31.9517C78.819 31.9517 78.7377 31.9639 78.6539 31.9916C78.571 32.0176 78.4831 32.0591 78.3848 32.1168V34.0725H77.4992V31.3118H78.3848V31.6175C78.5425 31.4947 78.6938 31.4004 78.8385 31.3345C78.9841 31.2687 79.1442 31.237 79.3215 31.237C79.6183 31.237 79.8517 31.3223 80.02 31.4964C80.1867 31.6704 80.2705 31.9306 80.2705 32.2754V34.0725Z" fill="#054589"></path>
  <path d="M83.4179 33.197C83.4179 33.4824 83.2895 33.7133 83.0341 33.8873C82.778 34.0622 82.4275 34.1492 81.9851 34.1492C81.7388 34.1492 81.5159 34.1256 81.3151 34.08C81.1151 34.0345 80.9549 33.9841 80.8345 33.9272V33.2002H80.915C80.9597 33.2303 81.0102 33.2661 81.0679 33.3027C81.1273 33.3393 81.2086 33.3791 81.3151 33.4214C81.407 33.4596 81.5111 33.4921 81.629 33.5182C81.7444 33.545 81.8689 33.5588 82.0014 33.5588C82.1754 33.5588 82.3039 33.5393 82.3885 33.5011C82.4706 33.4629 82.5137 33.4059 82.5137 33.3303C82.5137 33.2628 82.4885 33.214 82.4389 33.1848C82.3893 33.1539 82.2966 33.1254 82.1592 33.0977C82.0933 33.0823 82.0047 33.066 81.8916 33.049C81.7802 33.0319 81.6778 33.0107 81.5859 32.9863C81.3354 32.9205 81.1492 32.818 81.028 32.6806C80.9077 32.5415 80.8467 32.3691 80.8467 32.1626C80.8467 31.8967 80.9719 31.6771 81.224 31.5015C81.4745 31.3234 81.8184 31.2364 82.2551 31.2364C82.4617 31.2364 82.6584 31.2567 82.8479 31.299C83.0374 31.3405 83.1854 31.3852 83.2927 31.4324V32.1309H83.2163C83.0845 32.0406 82.9349 31.9674 82.7674 31.9105C82.5991 31.8536 82.4291 31.8268 82.2567 31.8268C82.1144 31.8268 81.9941 31.8463 81.8973 31.8845C81.7997 31.9243 81.751 31.9805 81.751 32.0528C81.751 32.1187 81.7721 32.1675 81.8168 32.2025C81.8607 32.2358 81.9648 32.2708 82.1299 32.3049C82.2201 32.3228 82.3161 32.3415 82.4202 32.3586C82.5243 32.3748 82.6292 32.3976 82.7349 32.4236C82.9674 32.4838 83.1382 32.5798 83.2496 32.7099C83.361 32.8392 83.4179 33.0026 83.4179 33.197Z" fill="#054589"></path>
  <path d="M85.7786 32.3367C85.7737 32.1521 85.7281 32.0131 85.6411 31.9196C85.5541 31.8268 85.4191 31.7789 85.2346 31.7789C85.0646 31.7789 84.9247 31.8236 84.8141 31.9122C84.7044 32.0009 84.6434 32.1424 84.6312 32.3367H85.7786ZM86.6584 32.8563H84.6328C84.6466 33.0718 84.7288 33.2385 84.88 33.3532C85.0313 33.4678 85.2541 33.5239 85.5493 33.5239C85.7371 33.5239 85.9176 33.4906 86.0933 33.4247C86.2689 33.3572 86.4063 33.284 86.5088 33.2076H86.6064V33.9183C86.4063 33.998 86.2185 34.0574 86.0412 34.0923C85.8639 34.1289 85.6688 34.1476 85.4549 34.1476C84.8995 34.1476 84.4751 34.0224 84.1807 33.7728C83.8855 33.5239 83.7391 33.1694 83.7391 32.7083C83.7391 32.2529 83.8774 31.8919 84.1571 31.626C84.4368 31.3593 84.819 31.2259 85.3061 31.2259C85.7558 31.2259 86.0933 31.339 86.3193 31.5666C86.5454 31.7943 86.6584 32.1196 86.6584 32.5457V32.8563Z" fill="#054589"></path>
  <path d="M87.2188 30.2485H88.1052V34.0728H87.2188V30.2485Z" fill="#054589"></path>
  <path d="M91.6457 34.0725H90.7593V32.7031C90.7593 32.5917 90.7536 32.4803 90.7414 32.3705C90.7301 32.2607 90.7105 32.1778 90.6829 32.1258C90.6496 32.0648 90.6024 32.0209 90.5398 31.9932C90.4755 31.9656 90.3885 31.9517 90.2755 31.9517C90.1942 31.9517 90.1129 31.9639 90.0291 31.9916C89.9462 32.0176 89.8583 32.0591 89.76 32.1168V34.0725H88.8744V30.2482H89.76V31.6175C89.9177 31.4947 90.069 31.4004 90.2137 31.3346C90.3593 31.2687 90.5194 31.237 90.6967 31.237C90.9935 31.237 91.2269 31.3224 91.3952 31.4964C91.5619 31.6704 91.6457 31.9306 91.6457 32.2754V34.0725Z" fill="#054589"></path>
  <path d="M94.127 33.3651C94.1831 33.2944 94.2262 33.209 94.2555 33.1098C94.2848 33.0106 94.2978 32.8748 94.2978 32.6991C94.2978 32.5373 94.2848 32.4007 94.2539 32.2909C94.2246 32.1811 94.1831 32.0941 94.1319 32.0283C94.0798 31.9608 94.0156 31.9136 93.9424 31.8843C93.8684 31.8567 93.7895 31.8429 93.7033 31.8429C93.618 31.8429 93.5432 31.8542 93.4765 31.8786C93.4106 31.9014 93.3464 31.9469 93.287 32.0161C93.2317 32.0787 93.1886 32.1673 93.1569 32.2787C93.1244 32.3901 93.1097 32.5292 93.1097 32.6991C93.1097 32.8504 93.1236 32.9797 93.1504 33.0903C93.178 33.2017 93.2195 33.2903 93.2732 33.3578C93.326 33.4212 93.3887 33.4676 93.4626 33.4977C93.5342 33.5269 93.618 33.5424 93.7115 33.5424C93.7912 33.5424 93.8684 33.5286 93.9408 33.5009C94.014 33.4733 94.0766 33.4293 94.127 33.3651ZM95.2166 32.6942C95.2166 33.148 95.0833 33.5058 94.819 33.7668C94.5531 34.0278 94.1823 34.1596 93.7033 34.1596C93.2252 34.1596 92.8544 34.0278 92.5885 33.7668C92.3242 33.5058 92.1925 33.148 92.1925 32.6942C92.1925 32.2356 92.3258 31.8786 92.5917 31.6168C92.8577 31.3558 93.2285 31.2257 93.7033 31.2257C94.1847 31.2257 94.558 31.3574 94.8206 31.6201C95.0833 31.8811 95.2166 32.2405 95.2166 32.6942Z" fill="#054589"></path>
  <path d="M99.5418 31.5331C99.5418 31.4412 99.5231 31.3632 99.4857 31.2981C99.4474 31.2322 99.3832 31.1802 99.2913 31.142C99.2271 31.116 99.1523 31.1005 99.0685 31.0948C98.9823 31.0883 98.8831 31.0851 98.7701 31.0851H98.4277V32.0722H98.718C98.8693 32.0722 98.9945 32.0649 99.097 32.0495C99.1978 32.034 99.2832 32.0023 99.3523 31.9486C99.4182 31.8982 99.4653 31.8413 99.4962 31.7803C99.5263 31.7193 99.5418 31.6372 99.5418 31.5331ZM101.014 34.0726H99.8613L98.8668 32.7309H98.4277V34.0726H97.4902V30.4134H99.0726C99.2881 30.4134 99.4743 30.4256 99.6304 30.45C99.7865 30.4744 99.9313 30.528 100.067 30.6086C100.206 30.6915 100.315 30.7964 100.396 30.9281C100.477 31.0574 100.518 31.2217 100.518 31.4185C100.518 31.6892 100.456 31.9088 100.331 32.0788C100.205 32.2495 100.026 32.3918 99.7922 32.5048L101.014 34.0726Z" fill="#054589"></path>
  <path d="M103.152 32.3367C103.147 32.1521 103.102 32.0131 103.015 31.9196C102.928 31.8268 102.793 31.7789 102.608 31.7789C102.438 31.7789 102.298 31.8236 102.188 31.9122C102.078 32.0009 102.017 32.1424 102.005 32.3367H103.152ZM104.032 32.8563H102.007C102.02 33.0718 102.102 33.2385 102.254 33.3532C102.405 33.4678 102.628 33.5239 102.923 33.5239C103.111 33.5239 103.291 33.4906 103.467 33.4247C103.643 33.3572 103.78 33.284 103.883 33.2076H103.98V33.9183C103.78 33.998 103.592 34.0574 103.415 34.0923C103.238 34.1289 103.043 34.1476 102.829 34.1476C102.273 34.1476 101.849 34.0224 101.554 33.7728C101.259 33.5239 101.112 33.1694 101.112 32.7083C101.112 32.2529 101.252 31.8919 101.531 31.626C101.811 31.3593 102.193 31.2259 102.68 31.2259C103.13 31.2259 103.467 31.339 103.693 31.5666C103.919 31.7943 104.032 32.1196 104.032 32.5457V32.8563Z" fill="#054589"></path>
  <path d="M106.388 33.203V31.9515C106.336 31.9304 106.275 31.9133 106.202 31.9011C106.127 31.8889 106.061 31.8832 106.004 31.8832C105.771 31.8832 105.597 31.9491 105.481 32.0832C105.364 32.2158 105.307 32.4028 105.307 32.6419C105.307 32.9086 105.356 33.0932 105.455 33.1973C105.554 33.3022 105.701 33.3542 105.895 33.3542C105.983 33.3542 106.069 33.3404 106.155 33.3127C106.24 33.2859 106.318 33.2485 106.388 33.203ZM107.275 33.7559C107.275 34.0145 107.238 34.2324 107.165 34.4097C107.091 34.587 106.988 34.7252 106.854 34.826C106.722 34.9269 106.562 35.0001 106.374 35.0456C106.187 35.0903 105.974 35.1131 105.739 35.1131C105.547 35.1131 105.359 35.1009 105.172 35.0781C104.986 35.0545 104.825 35.0277 104.69 34.9952V34.3032H104.798C104.905 34.3463 105.036 34.3853 105.192 34.4211C105.348 34.456 105.486 34.4731 105.609 34.4731C105.773 34.4731 105.905 34.4593 106.008 34.4284C106.11 34.3975 106.188 34.3552 106.243 34.2983C106.294 34.2463 106.331 34.1796 106.353 34.0966C106.376 34.0161 106.388 33.9169 106.388 33.8023V33.7502C106.282 33.8372 106.164 33.9064 106.034 33.9576C105.905 34.008 105.76 34.034 105.601 34.034C105.216 34.034 104.919 33.9169 104.707 33.6844C104.498 33.4518 104.394 33.0981 104.394 32.6224C104.394 32.3947 104.426 32.1979 104.49 32.0328C104.553 31.8677 104.643 31.7222 104.759 31.6002C104.868 31.4856 105.001 31.3953 105.159 31.3319C105.317 31.2684 105.479 31.2367 105.644 31.2367C105.792 31.2367 105.929 31.253 106.051 31.2888C106.171 31.3237 106.283 31.3725 106.383 31.4351L106.414 31.3115H107.275V33.7559Z" fill="#054589"></path>
  <path d="M108.932 34.0728H108.046V31.3121H108.932V34.0728ZM108.956 30.9193H108.02V30.2485H108.956V30.9193Z" fill="#054589"></path>
  <path d="M111.433 33.3651C111.49 33.2944 111.533 33.209 111.562 33.1098C111.591 33.0106 111.605 32.8748 111.605 32.6991C111.605 32.5373 111.591 32.4007 111.56 32.2909C111.531 32.1811 111.49 32.0941 111.438 32.0283C111.386 31.9608 111.322 31.9136 111.249 31.8843C111.176 31.8567 111.096 31.8429 111.01 31.8429C110.924 31.8429 110.849 31.8542 110.783 31.8786C110.717 31.9014 110.653 31.9469 110.593 32.0161C110.538 32.0787 110.495 32.1673 110.463 32.2787C110.431 32.3901 110.416 32.5292 110.416 32.6991C110.416 32.8504 110.43 32.9797 110.457 33.0903C110.484 33.2017 110.526 33.2903 110.579 33.3578C110.633 33.4212 110.695 33.4676 110.769 33.4977C110.841 33.5269 110.924 33.5424 111.018 33.5424C111.097 33.5424 111.176 33.5286 111.247 33.5009C111.32 33.4733 111.383 33.4293 111.433 33.3651ZM112.523 32.6942C112.523 33.148 112.39 33.5058 112.125 33.7668C111.859 34.0278 111.489 34.1596 111.01 34.1596C110.532 34.1596 110.161 34.0278 109.895 33.7668C109.631 33.5058 109.499 33.148 109.499 32.6942C109.499 32.2356 109.632 31.8786 109.898 31.6168C110.164 31.3558 110.535 31.2257 111.01 31.2257C111.491 31.2257 111.864 31.3574 112.127 31.6201C112.39 31.8811 112.523 32.2405 112.523 32.6942Z" fill="#054589"></path>
  <path d="M115.864 34.0725H114.978V32.7031C114.978 32.5917 114.972 32.4803 114.96 32.3705C114.949 32.2607 114.929 32.1778 114.902 32.1257C114.868 32.0648 114.821 32.0208 114.758 31.9932C114.694 31.9655 114.606 31.9517 114.494 31.9517C114.413 31.9517 114.332 31.9639 114.248 31.9916C114.166 32.0176 114.077 32.0591 113.979 32.1168V34.0725H113.093V31.3118H113.979V31.6175C114.136 31.4947 114.288 31.4004 114.432 31.3345C114.578 31.2687 114.738 31.237 114.915 31.237C115.212 31.237 115.446 31.3223 115.614 31.4964C115.78 31.6704 115.864 31.9306 115.864 32.2754V34.0725Z" fill="#054589"></path>
  <path d="M118.284 33.3514V32.7765C118.164 32.7878 118.036 32.8017 117.895 32.8179C117.756 32.835 117.65 32.8545 117.579 32.8773C117.49 32.9049 117.423 32.9464 117.375 33.0001C117.33 33.0521 117.305 33.1221 117.305 33.2091C117.305 33.266 117.309 33.3131 117.32 33.3481C117.33 33.3847 117.354 33.4189 117.394 33.4506C117.432 33.4839 117.476 33.5091 117.53 33.5238C117.582 33.5392 117.664 33.5465 117.775 33.5465C117.862 33.5465 117.953 33.5286 118.045 33.4937C118.135 33.4571 118.215 33.4091 118.284 33.3514ZM118.284 33.7807C118.236 33.8157 118.178 33.8604 118.107 33.9108C118.037 33.9612 117.97 34.0019 117.907 34.0312C117.822 34.071 117.732 34.1003 117.636 34.1182C117.544 34.1369 117.441 34.1475 117.33 34.1475C117.068 34.1475 116.848 34.0645 116.671 33.9027C116.494 33.7409 116.405 33.5335 116.405 33.2806C116.405 33.079 116.451 32.9147 116.541 32.7878C116.631 32.6594 116.758 32.5585 116.925 32.4853C117.088 32.4113 117.292 32.3585 117.534 32.3276C117.777 32.2967 118.028 32.2739 118.289 32.2585V32.2438C118.289 32.091 118.227 31.9869 118.102 31.9275C117.977 31.869 117.794 31.8405 117.551 31.8405C117.406 31.8405 117.25 31.8665 117.083 31.9186C116.918 31.9698 116.8 32.0096 116.727 32.0373H116.647V31.3713C116.739 31.3469 116.892 31.3176 117.102 31.2843C117.313 31.2501 117.523 31.2339 117.736 31.2339C118.239 31.2339 118.602 31.312 118.825 31.4656C119.05 31.6201 119.162 31.8633 119.162 32.195V34.0726H118.284V33.7807Z" fill="#054589"></path>
  <path d="M119.91 30.2485H120.796V34.0728H119.91V30.2485Z" fill="#054589"></path>
  <path d="M125.018 33.3131V31.956C124.955 31.9308 124.889 31.9121 124.821 31.8999C124.752 31.8877 124.689 31.8828 124.633 31.8828C124.401 31.8828 124.227 31.9552 124.11 32.0999C123.994 32.2446 123.936 32.4463 123.936 32.7049C123.936 32.9757 123.982 33.1725 124.075 33.2944C124.168 33.4172 124.319 33.4782 124.524 33.4782C124.604 33.4782 124.689 33.4628 124.78 33.4319C124.87 33.4018 124.95 33.3619 125.018 33.3131ZM125.904 34.0726H125.018V33.7848C124.865 33.9108 124.723 34.0019 124.59 34.0604C124.457 34.1198 124.305 34.1491 124.132 34.1491C123.796 34.1491 123.527 34.019 123.325 33.7612C123.125 33.501 123.024 33.1529 123.024 32.7138C123.024 32.4788 123.057 32.2707 123.125 32.091C123.194 31.9088 123.287 31.7543 123.405 31.625C123.516 31.5014 123.65 31.4063 123.81 31.338C123.968 31.2705 124.128 31.2363 124.286 31.2363C124.451 31.2363 124.587 31.2534 124.693 31.2884C124.798 31.3241 124.907 31.368 125.018 31.4233V30.2483H125.904V34.0726Z" fill="#054589"></path>
  <path d="M128.514 32.3367C128.509 32.1521 128.463 32.0131 128.376 31.9196C128.289 31.8268 128.154 31.7789 127.97 31.7789C127.801 31.7789 127.66 31.8236 127.549 31.9122C127.44 32.0009 127.379 32.1424 127.366 32.3367H128.514ZM129.394 32.8563H127.368C127.382 33.0718 127.464 33.2385 127.615 33.3532C127.766 33.4678 127.99 33.5239 128.284 33.5239C128.472 33.5239 128.653 33.4906 128.828 33.4247C129.004 33.3572 129.142 33.284 129.244 33.2076H129.342V33.9183C129.142 33.998 128.954 34.0574 128.776 34.0923C128.599 34.1289 128.404 34.1476 128.19 34.1476C127.636 34.1476 127.21 34.0224 126.916 33.7728C126.621 33.5239 126.474 33.1694 126.474 32.7083C126.474 32.2529 126.613 31.8919 126.893 31.626C127.172 31.3593 127.554 31.2259 128.041 31.2259C128.491 31.2259 128.828 31.339 129.055 31.5666C129.281 31.7943 129.394 32.1196 129.394 32.5457V32.8563Z" fill="#054589"></path>
  <path d="M134.305 34.0725H131.658V30.4132H134.305V31.1207H132.596V31.7517H134.183V32.4608H132.596V33.365H134.305V34.0725Z" fill="#054589"></path>
  <path d="M137.755 34.0725H136.868V32.7031C136.868 32.5917 136.862 32.4803 136.85 32.3705C136.839 32.2607 136.819 32.1778 136.792 32.1257C136.758 32.0648 136.711 32.0208 136.648 31.9932C136.584 31.9655 136.497 31.9517 136.384 31.9517C136.303 31.9517 136.222 31.9639 136.138 31.9916C136.055 32.0176 135.967 32.0591 135.869 32.1168V34.0725H134.983V31.3118H135.869V31.6175C136.027 31.4947 136.178 31.4004 136.323 31.3345C136.468 31.2687 136.628 31.237 136.806 31.237C137.102 31.237 137.336 31.3223 137.504 31.4964C137.671 31.6704 137.755 31.9306 137.755 32.2754V34.0725Z" fill="#054589"></path>
  <path d="M140.3 33.203V31.9515C140.248 31.9304 140.187 31.9133 140.114 31.9011C140.039 31.8889 139.973 31.8832 139.915 31.8832C139.683 31.8832 139.509 31.9491 139.392 32.0832C139.276 32.2158 139.218 32.4028 139.218 32.6419C139.218 32.9086 139.267 33.0932 139.366 33.1973C139.466 33.3022 139.613 33.3542 139.806 33.3542C139.895 33.3542 139.98 33.3404 140.067 33.3127C140.152 33.2859 140.23 33.2485 140.3 33.203ZM141.186 33.7559C141.186 34.0145 141.15 34.2324 141.077 34.4097C141.003 34.587 140.899 34.7252 140.766 34.826C140.633 34.9269 140.474 35.0001 140.286 35.0456C140.098 35.0903 139.886 35.1131 139.651 35.1131C139.458 35.1131 139.271 35.1009 139.083 35.0781C138.897 35.0545 138.737 35.0277 138.601 34.9952V34.3032H138.709C138.817 34.3463 138.948 34.3853 139.104 34.4211C139.26 34.456 139.399 34.4731 139.521 34.4731C139.684 34.4731 139.817 34.4593 139.919 34.4284C140.022 34.3975 140.1 34.3552 140.154 34.2983C140.206 34.2463 140.242 34.1796 140.265 34.0966C140.288 34.0161 140.3 33.9169 140.3 33.8023V33.7502C140.193 33.8372 140.076 33.9064 139.945 33.9576C139.817 34.008 139.672 34.034 139.513 34.034C139.128 34.034 138.831 33.9169 138.619 33.6844C138.41 33.4518 138.306 33.0981 138.306 32.6224C138.306 32.3947 138.338 32.1979 138.401 32.0328C138.465 31.8677 138.555 31.7222 138.671 31.6002C138.779 31.4856 138.913 31.3953 139.07 31.3319C139.229 31.2684 139.391 31.2367 139.556 31.2367C139.704 31.2367 139.841 31.253 139.963 31.2888C140.083 31.3237 140.194 31.3725 140.293 31.4351L140.326 31.3115H141.186V33.7559Z" fill="#054589"></path>
  <path d="M143.796 32.3367C143.791 32.1521 143.745 32.0131 143.658 31.9196C143.571 31.8268 143.436 31.7789 143.252 31.7789C143.082 31.7789 142.942 31.8236 142.831 31.9122C142.722 32.0009 142.661 32.1424 142.648 32.3367H143.796ZM144.676 32.8563H142.65C142.664 33.0718 142.746 33.2385 142.897 33.3532C143.049 33.4678 143.271 33.5239 143.567 33.5239C143.754 33.5239 143.935 33.4906 144.111 33.4247C144.286 33.3572 144.424 33.284 144.526 33.2076H144.624V33.9183C144.424 33.998 144.236 34.0574 144.059 34.0923C143.881 34.1289 143.686 34.1476 143.472 34.1476C142.918 34.1476 142.492 34.0224 142.198 33.7728C141.903 33.5239 141.756 33.1694 141.756 32.7083C141.756 32.2529 141.896 31.8919 142.174 31.626C142.454 31.3593 142.836 31.2259 143.323 31.2259C143.773 31.2259 144.111 31.339 144.337 31.5666C144.563 31.7943 144.676 32.1196 144.676 32.5457V32.8563Z" fill="#054589"></path>
  <path d="M148.008 34.0725H147.122V32.7031C147.122 32.5917 147.116 32.4803 147.104 32.3705C147.093 32.2607 147.073 32.1778 147.045 32.1257C147.012 32.0648 146.965 32.0208 146.902 31.9932C146.838 31.9655 146.751 31.9517 146.638 31.9517C146.557 31.9517 146.475 31.9639 146.392 31.9916C146.309 32.0176 146.221 32.0591 146.122 32.1168V34.0725H145.237V31.3118H146.122V31.6175C146.28 31.4947 146.431 31.4004 146.576 31.3345C146.722 31.2687 146.882 31.237 147.059 31.237C147.356 31.237 147.589 31.3223 147.758 31.4964C147.924 31.6704 148.008 31.9306 148.008 32.2754V34.0725Z" fill="#054589"></path>
  <path d="M151.528 34.0725H150.642V32.7031C150.642 32.5917 150.636 32.4803 150.624 32.3705C150.613 32.2607 150.593 32.1778 150.566 32.1258C150.532 32.0648 150.485 32.0209 150.423 31.9932C150.358 31.9656 150.271 31.9517 150.158 31.9517C150.077 31.9517 149.996 31.9639 149.912 31.9916C149.83 32.0176 149.741 32.0591 149.643 32.1168V34.0725H148.757V30.2482H149.643V31.6175C149.801 31.4947 149.952 31.4004 150.097 31.3346C150.242 31.2687 150.402 31.237 150.58 31.237C150.876 31.237 151.11 31.3224 151.278 31.4964C151.445 31.6704 151.528 31.9306 151.528 32.2754V34.0725Z" fill="#054589"></path>
  <path d="M153.951 33.3514V32.7765C153.829 32.7878 153.701 32.8017 153.561 32.8179C153.422 32.835 153.316 32.8545 153.244 32.8773C153.156 32.9049 153.088 32.9464 153.041 33.0001C152.996 33.0521 152.971 33.1221 152.971 33.2091C152.971 33.266 152.975 33.3131 152.986 33.3481C152.996 33.3847 153.02 33.4189 153.06 33.4506C153.098 33.4839 153.142 33.5091 153.196 33.5238C153.248 33.5392 153.33 33.5465 153.441 33.5465C153.529 33.5465 153.619 33.5286 153.71 33.4937C153.801 33.4571 153.882 33.4091 153.951 33.3514ZM153.951 33.7807C153.901 33.8157 153.843 33.8604 153.773 33.9108C153.702 33.9612 153.635 34.0019 153.572 34.0312C153.487 34.071 153.397 34.1003 153.303 34.1182C153.209 34.1369 153.107 34.1475 152.996 34.1475C152.734 34.1475 152.514 34.0645 152.337 33.9027C152.16 33.7409 152.071 33.5335 152.071 33.2806C152.071 33.079 152.117 32.9147 152.207 32.7878C152.297 32.6594 152.424 32.5585 152.591 32.4853C152.754 32.4113 152.957 32.3585 153.2 32.3276C153.443 32.2967 153.693 32.2739 153.954 32.2585V32.2438C153.954 32.091 153.892 31.9869 153.768 31.9275C153.643 31.869 153.46 31.8405 153.217 31.8405C153.072 31.8405 152.916 31.8665 152.749 31.9186C152.584 31.9698 152.465 32.0096 152.393 32.0373H152.312V31.3713C152.405 31.3469 152.558 31.3176 152.768 31.2843C152.978 31.2501 153.189 31.2339 153.401 31.2339C153.904 31.2339 154.269 31.312 154.491 31.4656C154.716 31.6201 154.827 31.8633 154.827 32.195V34.0726H153.951V33.7807Z" fill="#054589"></path>
  <path d="M157.576 32.155H157.498C157.461 32.1428 157.401 32.1322 157.317 32.1257C157.232 32.12 157.163 32.1167 157.109 32.1167C156.982 32.1167 156.87 32.1241 156.773 32.1411C156.678 32.1566 156.573 32.1859 156.462 32.2241V34.0724H155.577V31.3117H156.462V31.7183C156.658 31.5516 156.825 31.4402 156.97 31.3849C157.114 31.3296 157.246 31.3028 157.368 31.3028C157.4 31.3028 157.434 31.3044 157.473 31.3052C157.512 31.3068 157.546 31.3085 157.576 31.3117V32.155Z" fill="#054589"></path>
  <path d="M158.9 34.0728H158.013V31.3121H158.9V34.0728ZM158.923 30.9193H157.987V30.2485H158.923V30.9193Z" fill="#054589"></path>
  <path d="M161.339 33.3514V32.7765C161.218 32.7878 161.09 32.8017 160.949 32.8179C160.81 32.835 160.705 32.8545 160.633 32.8773C160.544 32.9049 160.477 32.9464 160.43 33.0001C160.384 33.0521 160.36 33.1221 160.36 33.2091C160.36 33.266 160.364 33.3131 160.375 33.3481C160.384 33.3847 160.408 33.4189 160.448 33.4506C160.486 33.4839 160.531 33.5091 160.585 33.5238C160.636 33.5392 160.719 33.5465 160.831 33.5465C160.918 33.5465 161.007 33.5286 161.1 33.4937C161.188 33.4571 161.27 33.4091 161.339 33.3514ZM161.339 33.7807C161.29 33.8157 161.232 33.8604 161.162 33.9108C161.092 33.9612 161.024 34.0019 160.962 34.0312C160.875 34.071 160.787 34.1003 160.691 34.1182C160.599 34.1369 160.496 34.1475 160.384 34.1475C160.123 34.1475 159.903 34.0645 159.726 33.9027C159.549 33.7409 159.46 33.5335 159.46 33.2806C159.46 33.079 159.505 32.9147 159.596 32.7878C159.686 32.6594 159.813 32.5585 159.979 32.4853C160.143 32.4113 160.345 32.3585 160.589 32.3276C160.832 32.2967 161.082 32.2739 161.344 32.2585V32.2438C161.344 32.091 161.281 31.9869 161.158 31.9275C161.032 31.869 160.849 31.8405 160.605 31.8405C160.461 31.8405 160.304 31.8665 160.139 31.9186C159.973 31.9698 159.854 32.0096 159.782 32.0373H159.701V31.3713C159.795 31.3469 159.948 31.3176 160.156 31.2843C160.367 31.2501 160.579 31.2339 160.792 31.2339C161.293 31.2339 161.657 31.312 161.88 31.4656C162.104 31.6201 162.216 31.8633 162.216 32.195V34.0726H161.339V33.7807Z" fill="#054589"></path>
  <path d="M82.301 38.3781C82.2961 38.1935 82.2506 38.0545 82.1636 37.961C82.0765 37.8674 81.9424 37.8203 81.757 37.8203C81.5878 37.8203 81.4472 37.8642 81.3366 37.9536C81.2268 38.0423 81.1658 38.1838 81.1536 38.3781H82.301ZM83.1808 38.8977H81.1552C81.1691 39.1132 81.2512 39.2791 81.4024 39.3946C81.5537 39.5084 81.7765 39.5653 82.0717 39.5653C82.2595 39.5653 82.44 39.532 82.6157 39.4661C82.7913 39.3986 82.9287 39.3254 83.0312 39.249H83.1288V39.9597C82.9287 40.0386 82.7409 40.0988 82.5636 40.1337C82.3864 40.1703 82.1912 40.189 81.9773 40.189C81.4228 40.189 80.9975 40.063 80.7031 39.8142C80.4079 39.5653 80.2616 39.2108 80.2616 38.7497C80.2616 38.2935 80.4006 37.9333 80.6803 37.6674C80.9593 37.3999 81.3414 37.2673 81.8285 37.2673C82.2782 37.2673 82.6157 37.3804 82.8417 37.608C83.0678 37.8357 83.1808 38.161 83.1808 38.5871V38.8977Z" fill="#054589"></path>
  <path d="M87.3705 38.7036L86.92 37.3912L86.4703 38.7036H87.3705ZM88.8285 40.1136H87.8535L87.5982 39.3745H86.2427L85.9881 40.1136H85.0375L86.3898 36.4544H87.4762L88.8285 40.1136Z" fill="#054589"></path>
  <path d="M91.036 39.2444V37.9929C90.9839 37.9718 90.923 37.9547 90.8498 37.9425C90.775 37.9303 90.7091 37.9246 90.6514 37.9246C90.4188 37.9246 90.2448 37.9897 90.1285 38.1246C90.0122 38.2572 89.9545 38.4442 89.9545 38.6833C89.9545 38.9492 90.0033 39.1346 90.1025 39.2387C90.2017 39.3436 90.3489 39.3956 90.5424 39.3956C90.631 39.3956 90.7164 39.3818 90.8026 39.3541C90.888 39.3265 90.9661 39.2899 91.036 39.2444ZM91.9223 39.7973C91.9223 40.0559 91.8857 40.2738 91.8117 40.4511C91.7386 40.6284 91.6353 40.7658 91.5019 40.8666C91.3694 40.9675 91.21 41.0415 91.0222 41.087C90.8343 41.1309 90.6221 41.1545 90.3863 41.1545C90.1944 41.1545 90.0065 41.1423 89.8195 41.1187C89.6333 41.0959 89.4731 41.0683 89.3373 41.0366V40.3446H89.4454C89.5528 40.3869 89.6837 40.4267 89.8398 40.4625C89.9951 40.4975 90.1342 40.5137 90.257 40.5137C90.4204 40.5137 90.553 40.4999 90.6554 40.4698C90.7579 40.4389 90.836 40.3966 90.8904 40.3397C90.9417 40.2877 90.9783 40.221 91.001 40.138C91.0238 40.0575 91.036 39.9575 91.036 39.8437V39.7916C90.9295 39.8786 90.8116 39.9469 90.6814 39.999C90.553 40.0494 90.4082 40.0754 90.2488 40.0754C89.8642 40.0754 89.5666 39.9575 89.3552 39.7258C89.1462 39.4932 89.0421 39.1387 89.0421 38.6638C89.0421 38.4361 89.0738 38.2393 89.1364 38.0742C89.2007 37.9092 89.2909 37.7636 89.4072 37.6416C89.5154 37.527 89.6487 37.4367 89.8065 37.3725C89.9651 37.3099 90.1269 37.2781 90.2919 37.2781C90.4399 37.2781 90.5766 37.2952 90.6985 37.3302C90.8189 37.3651 90.9303 37.4139 91.0303 37.4765L91.062 37.3529H91.9223V39.7973Z" fill="#054589"></path>
  <path d="M94.6937 38.1962H94.6157C94.5775 38.184 94.5181 38.1734 94.4343 38.1669C94.3498 38.1612 94.2815 38.158 94.2262 38.158C94.0993 38.158 93.9879 38.1653 93.892 38.1824C93.7952 38.1978 93.6911 38.2271 93.5797 38.2653V40.1136H92.6934V37.353H93.5797V37.7595C93.7757 37.5928 93.9432 37.4814 94.0887 37.4261C94.2327 37.3708 94.3636 37.344 94.4856 37.344C94.5165 37.344 94.5514 37.3456 94.5913 37.3464C94.6295 37.3481 94.6645 37.3497 94.6937 37.353V38.1962Z" fill="#054589"></path>
  <path d="M96.8634 39.4063C96.9203 39.3364 96.9626 39.2502 96.9918 39.151C97.0211 39.0518 97.0349 38.916 97.0349 38.7404C97.0349 38.5785 97.0211 38.4419 96.9902 38.3322C96.9609 38.2224 96.9203 38.1354 96.8682 38.0695C96.8162 38.002 96.752 37.9548 96.6788 37.9256C96.6056 37.8979 96.5259 37.8841 96.4405 37.8841C96.3543 37.8841 96.2795 37.8955 96.2128 37.9199C96.147 37.9426 96.0827 37.9882 96.0234 38.0573C95.9681 38.1199 95.925 38.2086 95.8933 38.32C95.8607 38.4314 95.8461 38.5704 95.8461 38.7404C95.8461 38.8916 95.8599 39.0209 95.8868 39.1315C95.9144 39.2429 95.9559 39.3315 96.0095 39.399C96.0632 39.4624 96.125 39.5088 96.199 39.5389C96.2706 39.5682 96.3543 39.5836 96.4478 39.5836C96.5275 39.5836 96.6056 39.5698 96.6771 39.5421C96.7503 39.5145 96.8129 39.4706 96.8634 39.4063ZM97.953 38.7355C97.953 39.1892 97.8196 39.547 97.5554 39.808C97.2895 40.0691 96.9187 40.2008 96.4405 40.2008C95.9624 40.2008 95.5908 40.0691 95.3249 39.808C95.0606 39.547 94.9288 39.1892 94.9288 38.7355C94.9288 38.2769 95.0622 37.9199 95.3281 37.658C95.594 37.397 95.9648 37.2669 96.4405 37.2669C96.9211 37.2669 97.2943 37.3986 97.557 37.6613C97.8196 37.9223 97.953 38.2817 97.953 38.7355Z" fill="#054589"></path>
  <path d="M101.293 40.1137H100.406V38.7443C100.406 38.6329 100.401 38.5215 100.389 38.4118C100.378 38.302 100.358 38.219 100.33 38.167C100.297 38.106 100.249 38.0621 100.187 38.0345C100.123 38.0068 100.036 37.993 99.9226 37.993C99.8413 37.993 99.7599 38.0052 99.6762 38.0328C99.5941 38.0589 99.5054 38.1003 99.407 38.1581V40.1137H98.5215V37.353H99.407V37.6588C99.5648 37.536 99.716 37.4417 99.8608 37.3758C100.006 37.3099 100.167 37.2782 100.344 37.2782C100.641 37.2782 100.874 37.3636 101.042 37.5376C101.209 37.7116 101.293 37.9718 101.293 38.3166V40.1137Z" fill="#054589"></path>
  <path d="M103.776 39.4063C103.832 39.3364 103.875 39.2502 103.904 39.151C103.933 39.0518 103.946 38.916 103.946 38.7404C103.946 38.5785 103.933 38.4419 103.902 38.3322C103.873 38.2224 103.832 38.1354 103.78 38.0695C103.728 38.002 103.664 37.9548 103.591 37.9256C103.518 37.8979 103.438 37.8841 103.353 37.8841C103.267 37.8841 103.192 37.8955 103.125 37.9199C103.059 37.9426 102.995 37.9882 102.936 38.0573C102.88 38.1199 102.837 38.2086 102.805 38.32C102.773 38.4314 102.758 38.5704 102.758 38.7404C102.758 38.8916 102.772 39.0209 102.799 39.1315C102.827 39.2429 102.868 39.3315 102.922 39.399C102.975 39.4624 103.037 39.5088 103.111 39.5389C103.183 39.5682 103.267 39.5836 103.36 39.5836C103.44 39.5836 103.518 39.5698 103.589 39.5421C103.663 39.5145 103.725 39.4706 103.776 39.4063ZM104.865 38.7355C104.865 39.1892 104.732 39.547 104.468 39.808C104.202 40.0691 103.831 40.2008 103.353 40.2008C102.874 40.2008 102.503 40.0691 102.237 39.808C101.973 39.547 101.841 39.1892 101.841 38.7355C101.841 38.2769 101.974 37.9199 102.24 37.658C102.506 37.397 102.877 37.2669 103.353 37.2669C103.833 37.2669 104.207 37.3986 104.469 37.6613C104.732 37.9223 104.865 38.2817 104.865 38.7355Z" fill="#054589"></path>
  <path d="M108.129 38.158V40.1136H107.242V38.7353C107.242 38.6012 107.238 38.4865 107.232 38.3922C107.226 38.2987 107.207 38.2206 107.178 38.1629C107.149 38.1027 107.103 38.0604 107.044 38.0328C106.984 38.0067 106.9 37.9929 106.792 37.9929C106.705 37.9929 106.621 38.01 106.54 38.045C106.458 38.0799 106.384 38.1181 106.318 38.158V40.1136H105.431V37.3529H106.318V37.6587C106.47 37.5392 106.616 37.4465 106.755 37.379C106.894 37.3115 107.047 37.2781 107.216 37.2781C107.398 37.2781 107.559 37.318 107.698 37.3985C107.837 37.4798 107.945 37.5985 108.023 37.7563C108.2 37.6083 108.373 37.4904 108.539 37.405C108.706 37.3196 108.869 37.2781 109.03 37.2781C109.328 37.2781 109.554 37.3668 109.709 37.5457C109.865 37.7246 109.94 37.9807 109.94 38.3174V40.1136H109.053V38.7353C109.053 38.5995 109.052 38.4849 109.045 38.3905C109.039 38.297 109.021 38.2206 108.992 38.1629C108.965 38.1027 108.92 38.0604 108.859 38.0328C108.799 38.0067 108.714 37.9929 108.604 37.9929C108.53 37.9929 108.459 38.0051 108.387 38.0311C108.316 38.0555 108.231 38.0986 108.129 38.158Z" fill="#054589"></path>
  <path d="M111.582 40.1138H110.696V37.3531H111.582V40.1138ZM111.606 36.9603H110.67V36.2895H111.606V36.9603Z" fill="#054589"></path>
  <path d="M114.022 39.3926V38.8177C113.901 38.8291 113.773 38.8421 113.632 38.8592C113.493 38.8762 113.387 38.8957 113.316 38.9193C113.227 38.9462 113.16 38.9876 113.112 39.0413C113.067 39.0933 113.043 39.1633 113.043 39.2503C113.043 39.3072 113.047 39.3544 113.057 39.3893C113.067 39.4259 113.091 39.4601 113.131 39.4918C113.169 39.5259 113.213 39.5503 113.267 39.565C113.319 39.5804 113.401 39.5877 113.513 39.5877C113.6 39.5877 113.69 39.5699 113.782 39.5349C113.872 39.4983 113.953 39.4503 114.022 39.3926ZM114.022 39.8219C113.973 39.8569 113.915 39.9016 113.844 39.952C113.774 40.0025 113.707 40.0431 113.644 40.0724C113.559 40.1122 113.469 40.1415 113.374 40.1594C113.281 40.1781 113.178 40.1887 113.067 40.1887C112.805 40.1887 112.586 40.1065 112.408 39.9439C112.231 39.7821 112.142 39.5747 112.142 39.3227C112.142 39.121 112.188 38.9559 112.278 38.8291C112.368 38.7006 112.495 38.5998 112.662 38.5266C112.825 38.4526 113.029 38.3997 113.271 38.3688C113.514 38.3387 113.765 38.3151 114.026 38.3005V38.2851C114.026 38.1322 113.964 38.0281 113.839 37.9687C113.714 37.9102 113.531 37.8817 113.288 37.8817C113.143 37.8817 112.987 37.9078 112.821 37.9598C112.655 38.011 112.537 38.0509 112.464 38.0785H112.384V37.4125C112.477 37.3881 112.629 37.3589 112.839 37.3255C113.05 37.2914 113.26 37.2751 113.473 37.2751C113.976 37.2751 114.34 37.3532 114.562 37.5069C114.787 37.6614 114.899 37.9045 114.899 38.2363V40.1139H114.022V39.8219Z" fill="#054589"></path>
  <path d="M119.1 39.3544V37.9972C119.038 37.972 118.972 37.9533 118.904 37.9411C118.835 37.9289 118.772 37.924 118.715 37.924C118.483 37.924 118.309 37.9964 118.193 38.1411C118.077 38.2867 118.019 38.4883 118.019 38.7461C118.019 39.0169 118.064 39.2137 118.158 39.3365C118.251 39.4585 118.401 39.5194 118.607 39.5194C118.687 39.5194 118.772 39.504 118.862 39.4739C118.952 39.443 119.032 39.4032 119.1 39.3544ZM119.987 40.1139H119.1V39.826C118.948 39.952 118.805 40.0431 118.673 40.1017C118.539 40.161 118.387 40.1903 118.214 40.1903C117.878 40.1903 117.609 40.0602 117.407 39.8016C117.207 39.5422 117.107 39.1942 117.107 38.7559C117.107 38.5201 117.14 38.3127 117.207 38.1322C117.276 37.95 117.369 37.7955 117.487 37.6662C117.598 37.5426 117.733 37.4475 117.892 37.3792C118.051 37.3117 118.21 37.2775 118.369 37.2775C118.534 37.2775 118.669 37.2946 118.775 37.3296C118.88 37.3654 118.989 37.4093 119.1 37.4646V36.2896H119.987V40.1139Z" fill="#054589"></path>
  <path d="M122.596 38.3781C122.591 38.1935 122.546 38.0545 122.459 37.961C122.372 37.8674 122.237 37.8203 122.052 37.8203C121.882 37.8203 121.742 37.8642 121.632 37.9536C121.522 38.0423 121.461 38.1838 121.449 38.3781H122.596ZM123.476 38.8977H121.451C121.464 39.1132 121.546 39.2791 121.698 39.3946C121.849 39.5084 122.072 39.5653 122.367 39.5653C122.555 39.5653 122.735 39.532 122.911 39.4661C123.087 39.3986 123.224 39.3254 123.326 39.249H123.424V39.9597C123.224 40.0386 123.036 40.0988 122.859 40.1337C122.682 40.1703 122.486 40.189 122.273 40.189C121.718 40.189 121.293 40.063 120.998 39.8142C120.703 39.5653 120.557 39.2108 120.557 38.7497C120.557 38.2935 120.695 37.9333 120.976 37.6674C121.255 37.3999 121.637 37.2673 122.124 37.2673C122.573 37.2673 122.911 37.3804 123.137 37.608C123.363 37.8357 123.476 38.161 123.476 38.5871V38.8977Z" fill="#054589"></path>
  <path d="M128.668 38.9633C128.668 39.3236 128.515 39.6171 128.21 39.8416C127.905 40.0676 127.49 40.1806 126.966 40.1806C126.662 40.1806 126.398 40.1538 126.173 40.1001C125.947 40.0481 125.736 39.979 125.539 39.8985V39.0194H125.643C125.838 39.1756 126.055 39.2951 126.299 39.3789C126.54 39.4626 126.772 39.5041 126.995 39.5041C127.052 39.5041 127.128 39.5 127.221 39.4903C127.314 39.4797 127.391 39.4626 127.449 39.4398C127.522 39.4106 127.582 39.374 127.627 39.3301C127.675 39.2853 127.698 39.2203 127.698 39.1333C127.698 39.0536 127.665 38.9828 127.596 38.9251C127.528 38.8674 127.429 38.8227 127.298 38.7918C127.16 38.7584 127.013 38.7283 126.86 38.6991C126.708 38.6714 126.564 38.6348 126.429 38.5901C126.121 38.4893 125.899 38.3551 125.765 38.1827C125.629 38.0111 125.562 37.7989 125.562 37.5452C125.562 37.2045 125.715 36.9264 126.02 36.7109C126.326 36.4954 126.718 36.3872 127.198 36.3872C127.439 36.3872 127.678 36.41 127.914 36.4572C128.149 36.5051 128.352 36.5629 128.524 36.6328V37.4769H128.423C128.275 37.359 128.095 37.2598 127.881 37.1801C127.667 37.1012 127.449 37.0613 127.226 37.0613C127.148 37.0613 127.069 37.0654 126.991 37.076C126.913 37.0874 126.838 37.1085 126.766 37.1378C126.702 37.1622 126.647 37.1988 126.601 37.2492C126.555 37.2996 126.532 37.3557 126.532 37.4199C126.532 37.5167 126.569 37.5915 126.643 37.6428C126.717 37.694 126.856 37.7411 127.061 37.7834C127.195 37.8111 127.325 37.8387 127.449 37.8647C127.573 37.8908 127.705 37.9274 127.848 37.9729C128.129 38.0648 128.335 38.19 128.468 38.3478C128.602 38.5063 128.668 38.7113 128.668 38.9633Z" fill="#054589"></path>
  <path d="M130.873 39.3926V38.8177C130.752 38.8291 130.624 38.8421 130.483 38.8592C130.344 38.8762 130.239 38.8958 130.167 38.9193C130.078 38.9462 130.011 38.9876 129.964 39.0413C129.918 39.0934 129.894 39.1633 129.894 39.2503C129.894 39.3072 129.898 39.3544 129.908 39.3893C129.918 39.4259 129.943 39.4601 129.982 39.4918C130.021 39.526 130.065 39.5504 130.118 39.565C130.17 39.5804 130.252 39.5878 130.364 39.5878C130.452 39.5878 130.541 39.5699 130.633 39.5349C130.723 39.4983 130.805 39.4503 130.873 39.3926ZM131.523 36.1367C131.507 36.4132 131.44 36.6197 131.321 36.7523C131.201 36.8864 131.036 36.9523 130.822 36.9523C130.746 36.9523 130.673 36.9377 130.603 36.9068C130.534 36.8775 130.469 36.8441 130.413 36.8108C130.361 36.7799 130.306 36.7482 130.243 36.7157C130.182 36.6839 130.132 36.6685 130.091 36.6685C130.01 36.6685 129.956 36.6945 129.93 36.7466C129.903 36.7986 129.886 36.8734 129.882 36.9677H129.343C129.353 36.7205 129.421 36.5229 129.548 36.3749C129.675 36.2286 129.84 36.1538 130.042 36.1538C130.12 36.1538 130.195 36.1684 130.265 36.196C130.335 36.2253 130.4 36.257 130.459 36.2912C130.52 36.3245 130.577 36.3554 130.628 36.3839C130.682 36.4132 130.729 36.427 130.774 36.427C130.853 36.427 130.906 36.401 130.935 36.3473C130.966 36.2953 130.982 36.2253 130.986 36.1367H131.523ZM130.873 39.8219C130.824 39.8569 130.766 39.9016 130.696 39.9521C130.626 40.0025 130.558 40.0431 130.496 40.0724C130.41 40.1122 130.32 40.1415 130.225 40.1594C130.132 40.1781 130.03 40.1887 129.918 40.1887C129.656 40.1887 129.437 40.1066 129.259 39.9439C129.082 39.7821 128.994 39.5747 128.994 39.3227C128.994 39.121 129.039 38.9559 129.129 38.8291C129.22 38.7006 129.347 38.5998 129.513 38.5266C129.677 38.4526 129.88 38.3997 130.122 38.3688C130.365 38.3387 130.616 38.3152 130.878 38.3005V38.2851C130.878 38.1322 130.815 38.0281 130.691 37.9687C130.565 37.9102 130.382 37.8817 130.139 37.8817C129.995 37.8817 129.838 37.9078 129.672 37.9598C129.507 38.011 129.388 38.0509 129.316 38.0785H129.235V37.4125C129.328 37.3881 129.481 37.3589 129.69 37.3255C129.901 37.2914 130.112 37.2751 130.324 37.2751C130.827 37.2751 131.191 37.3532 131.414 37.5069C131.638 37.6614 131.75 37.9045 131.75 38.2363V40.1139H130.873V39.8219Z" fill="#054589"></path>
  <path d="M134.233 39.4063C134.289 39.3364 134.332 39.2502 134.361 39.151C134.391 39.0518 134.404 38.916 134.404 38.7404C134.404 38.5785 134.391 38.4419 134.36 38.3322C134.33 38.2224 134.289 38.1354 134.238 38.0695C134.186 38.002 134.121 37.9548 134.048 37.9256C133.975 37.8979 133.895 37.8841 133.81 37.8841C133.724 37.8841 133.649 37.8955 133.582 37.9199C133.516 37.9426 133.452 37.9882 133.393 38.0573C133.337 38.1199 133.294 38.2086 133.263 38.32C133.23 38.4314 133.215 38.5704 133.215 38.7404C133.215 38.8916 133.229 39.0209 133.256 39.1315C133.284 39.2429 133.325 39.3315 133.379 39.399C133.432 39.4624 133.494 39.5088 133.568 39.5389C133.64 39.5682 133.724 39.5836 133.817 39.5836C133.896 39.5836 133.975 39.5698 134.047 39.5421C134.12 39.5145 134.182 39.4706 134.233 39.4063ZM135.322 38.7355C135.322 39.1892 135.189 39.547 134.925 39.808C134.659 40.0691 134.287 40.2008 133.81 40.2008C133.331 40.2008 132.96 40.0691 132.694 39.808C132.43 39.547 132.298 39.1892 132.298 38.7355C132.298 38.2769 132.432 37.9199 132.697 37.658C132.963 37.397 133.334 37.2669 133.81 37.2669C134.29 37.2669 134.664 37.3986 134.926 37.6613C135.189 37.9223 135.322 38.2817 135.322 38.7355Z" fill="#054589"></path>
  <path d="M139.638 37.6309C139.638 37.5268 139.611 37.4382 139.556 37.3633C139.499 37.2902 139.435 37.2381 139.36 37.208C139.263 37.1698 139.166 37.1479 139.073 37.1438C138.98 37.1389 138.856 37.1373 138.7 37.1373H138.538V38.231H138.807C138.969 38.231 139.1 38.2204 139.204 38.2025C139.308 38.1822 139.397 38.1432 139.468 38.0846C139.527 38.031 139.571 37.9683 139.599 37.8968C139.625 37.8236 139.638 37.735 139.638 37.6309ZM140.615 37.6097C140.615 37.7732 140.586 37.9334 140.529 38.0895C140.471 38.2464 140.39 38.3782 140.283 38.4847C140.136 38.6286 139.974 38.7368 139.795 38.8116C139.616 38.8856 139.392 38.9222 139.125 38.9222H138.538V40.1135H137.594V36.4542H139.148C139.38 36.4542 139.576 36.4746 139.736 36.5144C139.895 36.5534 140.037 36.6152 140.16 36.6941C140.308 36.7925 140.421 36.9161 140.499 37.0657C140.577 37.217 140.615 37.3975 140.615 37.6097Z" fill="#054589"></path>
  <path d="M142.841 39.3926V38.8177C142.72 38.8291 142.592 38.8421 142.451 38.8592C142.312 38.8762 142.207 38.8957 142.135 38.9193C142.046 38.9462 141.979 38.9876 141.932 39.0413C141.886 39.0933 141.862 39.1633 141.862 39.2503C141.862 39.3072 141.866 39.3544 141.876 39.3893C141.886 39.4259 141.911 39.4601 141.95 39.4918C141.989 39.5259 142.032 39.5503 142.086 39.565C142.138 39.5804 142.22 39.5877 142.332 39.5877C142.419 39.5877 142.509 39.5699 142.601 39.5349C142.691 39.4983 142.772 39.4503 142.841 39.3926ZM142.841 39.8219C142.792 39.8569 142.734 39.9016 142.664 39.952C142.594 40.0025 142.526 40.0431 142.463 40.0724C142.378 40.1122 142.288 40.1415 142.193 40.1594C142.1 40.1781 141.998 40.1887 141.886 40.1887C141.624 40.1887 141.405 40.1065 141.227 39.9439C141.05 39.7821 140.962 39.5747 140.962 39.3227C140.962 39.121 141.007 38.9559 141.097 38.8291C141.188 38.7006 141.314 38.5998 141.481 38.5266C141.645 38.4526 141.848 38.3997 142.091 38.3688C142.333 38.3387 142.584 38.3151 142.846 38.3005V38.2851C142.846 38.1322 142.783 38.0281 142.659 37.9687C142.533 37.9102 142.35 37.8817 142.107 37.8817C141.963 37.8817 141.806 37.9078 141.64 37.9598C141.475 38.011 141.356 38.0509 141.284 38.0785H141.203V37.4125C141.296 37.3881 141.449 37.3589 141.658 37.3255C141.869 37.2914 142.08 37.2751 142.293 37.2751C142.795 37.2751 143.159 37.3532 143.382 37.5069C143.606 37.6614 143.718 37.9045 143.718 38.2363V40.1139H142.841V39.8219Z" fill="#054589"></path>
  <path d="M147.217 40.1137H146.329V39.8096C146.165 39.9332 146.016 40.0283 145.88 40.0942C145.744 40.1584 145.582 40.1901 145.394 40.1901C145.09 40.1901 144.855 40.1031 144.689 39.9275C144.526 39.7518 144.444 39.4933 144.444 39.1509V37.353H145.331V38.7232C145.331 38.8622 145.336 38.9785 145.345 39.0704C145.355 39.1631 145.374 39.2396 145.407 39.3005C145.438 39.3607 145.486 39.4046 145.548 39.4339C145.612 39.4615 145.699 39.4754 145.812 39.4754C145.889 39.4754 145.972 39.4615 146.063 39.4339C146.155 39.4046 146.243 39.3648 146.329 39.3103V37.353H147.217V40.1137Z" fill="#054589"></path>
  <path d="M147.988 36.2895H148.875V40.1138H147.988V36.2895Z" fill="#054589"></path>
  <path d="M151.376 39.4063C151.433 39.3364 151.475 39.2502 151.504 39.151C151.533 39.0518 151.547 38.916 151.547 38.7404C151.547 38.5785 151.533 38.4419 151.503 38.3322C151.473 38.2224 151.433 38.1354 151.381 38.0695C151.329 38.002 151.264 37.9548 151.191 37.9256C151.118 37.8979 151.038 37.8841 150.953 37.8841C150.867 37.8841 150.792 37.8955 150.725 37.9199C150.659 37.9426 150.595 37.9882 150.536 38.0573C150.48 38.1199 150.437 38.2086 150.406 38.32C150.373 38.4314 150.358 38.5704 150.358 38.7404C150.358 38.8916 150.372 39.0209 150.399 39.1315C150.427 39.2429 150.468 39.3315 150.522 39.399C150.575 39.4624 150.637 39.5088 150.711 39.5389C150.783 39.5682 150.867 39.5836 150.96 39.5836C151.04 39.5836 151.118 39.5698 151.189 39.5421C151.263 39.5145 151.325 39.4706 151.376 39.4063ZM152.465 38.7355C152.465 39.1892 152.332 39.547 152.068 39.808C151.802 40.0691 151.431 40.2008 150.953 40.2008C150.475 40.2008 150.103 40.0691 149.837 39.808C149.573 39.547 149.441 39.1892 149.441 38.7355C149.441 38.2769 149.575 37.9199 149.84 37.658C150.106 37.397 150.477 37.2669 150.953 37.2669C151.433 37.2669 151.807 37.3986 152.069 37.6613C152.332 37.9223 152.465 38.2817 152.465 38.7355Z" fill="#054589"></path>
  <path fill-rule="evenodd" clip-rule="evenodd" d="M40.0158 0.525307V37.5617C40.0158 38.6456 39.1278 39.5336 38.0431 39.5336H22.4628C21.4448 39.5352 20.5121 40.302 20.3218 41.1095C20.0713 40.2996 19.0931 39.5474 18.1417 39.5336H2.50129C1.41653 39.5336 0.528555 38.6464 0.528555 37.5617V0.525307H40.0158ZM0 0H40.546V37.5901C40.546 38.9441 39.4376 40.0516 38.0845 40.0516H22.4881C21.4643 40.0516 20.7593 40.7907 20.3161 42.2536C19.8957 40.9973 19.2744 40.0467 18.0262 40.0516H2.46145C1.10834 40.0516 0 38.9441 0 37.5901V0Z" fill="#054589"></path>
</svg>
